<?xml version="1.0"?>
<svg xmlns="http://www.w3.org/2000/svg" width="512" height="512" viewBox="0 0 512 512"><g><path d="M472,168H456V88a8,8,0,0,0-8-8H360a8,8,0,0,0-8,8v24H304a8,8,0,0,0-8,8v48H147.69A31.705,31.705,0,0,0,152,152V112a8,8,0,0,0-8-8H128.41c2.51-24.38,16.27-43.74,33.65-47.38C166.59,65.7,178.13,72,192,72c17.03,0,29.3-17.54,30.64-19.54a8.005,8.005,0,0,0,0-8.92,57.3,57.3,0,0,0-8.25-9.42C207.21,27.5,199.46,24,192,24c-14.42,0-26.33,6.81-30.45,16.48-12.93,1.86-24.79,9.31-33.9,21.45C119,73.47,113.7,88.18,112.35,104H80a8,8,0,0,0-8,8v40a31.705,31.705,0,0,0,4.31,16H40A32.042,32.042,0,0,0,8,200V376a32.042,32.042,0,0,0,32,32v16a8,8,0,0,0,8,8H60.46L40.51,485.19A7.992,7.992,0,0,0,48,496H72a7.987,7.987,0,0,0,6.78-3.76L116.43,432H395.57l37.65,60.24A7.987,7.987,0,0,0,440,496h24a7.992,7.992,0,0,0,7.49-10.81L451.54,432H464a8,8,0,0,0,8-8V408a32.042,32.042,0,0,0,32-32V200A32.042,32.042,0,0,0,472,168ZM192,40c4.92,0,10.15,4.26,13.69,8-3.54,3.75-8.77,8-13.69,8-9.77,0-16-4.74-16-8S182.23,40,192,40ZM392,96h24v32H392Zm-24,0h8v40a8,8,0,0,0,8,8h40a8,8,0,0,0,8-8V96h8v72H368Zm-56,32h40v40H312ZM88,120h48v32a16.021,16.021,0,0,1-16,16H104a16.021,16.021,0,0,1-16-16ZM67.57,480H59.54l18-48H97.57Zm384.89,0h-8.03l-30-48h20.03ZM456,416H56v-8H456Zm32-40a16.021,16.021,0,0,1-16,16H40a16.021,16.021,0,0,1-16-16V200a16.021,16.021,0,0,1,16-16H472a16.021,16.021,0,0,1,16,16Z"/><path d="M232,192H48a16.019,16.019,0,0,0-16,16v56a16.019,16.019,0,0,0,16,16H232a16.019,16.019,0,0,0,16-16V208A16.019,16.019,0,0,0,232,192Zm0,72H48l-.01-56H232Z"/><path d="M112,240h56a8,8,0,0,0,0-16H112a8,8,0,0,0,0,16Z"/><path d="M464,192H280a16.019,16.019,0,0,0-16,16v56a16.019,16.019,0,0,0,16,16H464a16.019,16.019,0,0,0,16-16V208A16.019,16.019,0,0,0,464,192Zm0,72H280l-.01-56H464Z"/><path d="M344,240h56a8,8,0,0,0,0-16H344a8,8,0,0,0,0,16Z"/><path d="M232,296H48a16.019,16.019,0,0,0-16,16v56a16.019,16.019,0,0,0,16,16H232a16.019,16.019,0,0,0,16-16V312A16.019,16.019,0,0,0,232,296Zm0,72H48l-.01-56H232Z"/><path d="M112,344h56a8,8,0,0,0,0-16H112a8,8,0,0,0,0,16Z"/><path d="M464,296H280a16.019,16.019,0,0,0-16,16v56a16.019,16.019,0,0,0,16,16H464a16.019,16.019,0,0,0,16-16V312A16.019,16.019,0,0,0,464,296Zm0,72H280l-.01-56H464Z"/><path d="M344,344h56a8,8,0,0,0,0-16H344a8,8,0,0,0,0,16Z"/></g></svg>
