<svg id="icons" enable-background="new 0 0 64 64" height="512" viewBox="0 0 64 64" width="512" xmlns="http://www.w3.org/2000/svg"><g><g><g><g><path d="m45.174 36.998c-.256 0-.512-.098-.707-.293l-17.426-17.426c-.391-.391-.391-1.023 0-1.414s1.023-.391 1.414 0l17.426 17.426c.391.391.391 1.023 0 1.414-.195.195-.451.293-.707.293z"/></g><g><path d="m63.013 54.837c-.256 0-.512-.098-.707-.293l-7.838-7.838c-.391-.391-.391-1.023 0-1.414s1.023-.391 1.414 0l7.838 7.838c.391.391.391 1.023 0 1.414-.196.195-.451.293-.707.293z"/></g><g><path d="m58.984 59.038c-.249 0-.498-.093-.692-.278-.398-.382-.412-1.016-.029-1.414l4.028-4.201c.382-.397 1.015-.41 1.414-.029.398.382.412 1.016.029 1.414l-4.028 4.201c-.196.204-.459.307-.722.307z"/></g><g><path d="m19.266 28.056c-.256 0-.512-.098-.707-.293-.391-.391-.391-1.023 0-1.414l9.189-9.189c.391-.391 1.023-.391 1.414 0s.391 1.023 0 1.414l-9.189 9.189c-.196.195-.452.293-.707.293z"/></g><g><path d="m28.455 18.866c-.256 0-.512-.098-.707-.293l-11.904-11.904c-.391-.391-.391-1.023 0-1.414s1.023-.391 1.414 0l11.904 11.904c.391.391.391 1.023 0 1.414-.195.196-.451.293-.707.293z"/></g><g><path d="m.988 15.44c-.354 0-.697-.188-.879-.521-.265-.485-.085-1.093.399-1.356l15.563-8.479c.487-.266 1.093-.085 1.356.399.265.485.086 1.093-.399 1.356l-15.562 8.479c-.153.083-.317.122-.478.122z"/></g><g><path d="m6.656 16.857c-.354 0-.697-.188-.879-.521-.265-.485-.086-1.093.399-1.356l10.082-5.493c.485-.263 1.092-.084 1.356.401s.084 1.092-.401 1.356l-10.08 5.491c-.152.083-.316.122-.477.122z"/></g><g><path d="m19.263 28.059h-5.655c-.553 0-1-.447-1-1s.447-1 1-1h5.655c.553 0 1 .447 1 1s-.448 1-1 1z"/></g><g><path d="m15.431 21.396h-4.24c-.553 0-1-.447-1-1s.447-1 1-1h4.24c.553 0 1 .447 1 1s-.448 1-1 1z"/></g><g><path d="m13.607 28.059c-.256 0-.512-.098-.707-.293l-12.619-12.62c-.391-.391-.391-1.023 0-1.414s1.023-.391 1.414 0l12.619 12.619c.391.391.391 1.023 0 1.414-.195.196-.451.294-.707.294z"/></g><g><path d="m11.983 31.039c-.161 0-.325-.039-.478-.122-.484-.264-.664-.871-.399-1.356l1.623-2.98c.263-.484.869-.664 1.356-.399.484.264.664.871.399 1.356l-1.623 2.98c-.179.333-.523.521-.878.521z"/></g><g><path d="m15.431 21.396c-.256 0-.512-.098-.707-.293-.391-.391-.391-1.023 0-1.414l5.656-5.657c.391-.391 1.023-.391 1.414 0s.391 1.023 0 1.414l-5.656 5.657c-.196.195-.451.293-.707.293z"/></g><g><path d="m21.087 15.738c-.256 0-.512-.098-.707-.293l-4.362-4.362c-.391-.391-.391-1.023 0-1.414s1.023-.391 1.414 0l4.362 4.362c.391.391.391 1.023 0 1.414-.195.196-.451.293-.707.293z"/></g><g><path d="m11.19 21.396c-.256 0-.512-.098-.707-.293l-4.536-4.536c-.391-.391-.391-1.023 0-1.414s1.023-.391 1.414 0l4.536 4.536c.391.391.391 1.023 0 1.414-.195.195-.451.293-.707.293z"/></g></g><g><g><path d="m58.985 59.038c-.021 0-.042-.001-.063-.002l-2.161-.135c-.318-.02-.608-.19-.78-.46l-1.19-1.863c-.297-.465-.161-1.083.305-1.381.462-.297 1.084-.161 1.381.305l.917 1.435 1.654.104c.551.034.97.509.936 1.061-.035.528-.475.936-.999.936z"/></g><g><path d="m55.628 57.036c-.021 0-.042-.001-.063-.002l-2.161-.134c-.319-.02-.609-.19-.781-.46l-1.19-1.864c-.297-.466-.161-1.084.305-1.381.465-.297 1.084-.161 1.381.305l.917 1.436 1.653.103c.552.034.971.509.937 1.06-.034.529-.474.937-.998.937z"/></g><g><path d="m52.27 55.034c-.021 0-.042-.001-.063-.002l-2.16-.134c-.319-.02-.609-.19-.781-.46l-1.19-1.863c-.297-.465-.161-1.083.305-1.381.462-.297 1.084-.161 1.381.305l.917 1.435 1.652.103c.552.034.971.509.937 1.06-.035.529-.474.937-.998.937z"/></g><g><path d="m48.912 53.033c-.021 0-.042-.001-.063-.002l-2.161-.135c-.318-.02-.608-.19-.78-.46l-1.189-1.864c-.297-.466-.161-1.084.305-1.381.466-.299 1.084-.16 1.381.305l.916 1.436 1.654.104c.551.034.97.509.936 1.061-.035.528-.475.936-.999.936z"/></g><g><path d="m45.556 51.03c-.021 0-.041-.001-.063-.002l-2.162-.133c-.319-.02-.609-.19-.781-.46l-1.189-1.864c-.297-.466-.161-1.084.305-1.381.467-.299 1.084-.161 1.381.305l.916 1.436 1.654.102c.551.034.971.508.937 1.06-.033.529-.474.937-.998.937z"/></g><g><path d="m42.197 49.029c-.021 0-.042-.001-.063-.002l-2.16-.135c-.318-.02-.608-.19-.78-.459l-1.191-1.863c-.297-.466-.161-1.084.304-1.382.466-.297 1.083-.161 1.382.304l.918 1.436 1.653.104c.551.034.97.509.936 1.061-.035.528-.475.936-.999.936z"/></g><g><path d="" style="fill:none;stroke:rgb(0,0,0);stroke-width:2;stroke-linecap:round;stroke-linejoin:round;stroke-miterlimit:10"/></g><g><path d="m19.891 36.885c-.33 0-.653-.163-.844-.462l-1.19-1.863c-.297-.465-.161-1.083.305-1.381.463-.297 1.084-.161 1.381.305l1.19 1.863c.297.465.161 1.083-.305 1.381-.166.106-.353.157-.537.157z"/></g><g><path d="m18.694 35.018c-.021 0-.042-.001-.063-.002l-2.161-.135c-.318-.02-.608-.19-.78-.46l-1.19-1.864c-.297-.466-.161-1.084.305-1.381.465-.297 1.084-.161 1.381.305l.917 1.436 1.654.104c.551.034.97.509.936 1.061-.035.527-.475.936-.999.936z"/></g><g><path d="m15.337 33.015c-.021 0-.041-.001-.063-.002l-2.162-.133c-.319-.02-.609-.19-.781-.46l-1.189-1.864c-.297-.466-.161-1.084.305-1.381.467-.299 1.084-.16 1.381.305l.916 1.436 1.654.102c.551.034.971.508.937 1.06-.033.528-.474.937-.998.937z"/></g></g></g><g><path d="m63.013 46.999h-62.013c-.553 0-1-.447-1-1s.447-1 1-1h62.013c.553 0 1 .447 1 1s-.448 1-1 1z"/></g><g><path d="m63.013 36.999h-62.013c-.553 0-1-.447-1-1s.447-1 1-1h62.013c.553 0 1 .447 1 1s-.448 1-1 1z"/></g><g><path d="m21 42h-20c-.553 0-1-.447-1-1s.447-1 1-1h20c.553 0 1 .447 1 1s-.447 1-1 1z"/></g><g><path d="m41 40.999c-2.757 0-5-2.243-5-5 0-.553.447-1 1-1s1 .447 1 1c0 1.654 1.346 3 3 3 .553 0 1 .447 1 1s-.447 1-1 1z"/></g><g><path d="m63 40.999h-22c-.553 0-1-.447-1-1s.447-1 1-1h22c.553 0 1 .447 1 1s-.447 1-1 1z"/></g></g></svg>