<?xml version="1.0" encoding="utf-8"?>
<!-- Generator: Adobe Illustrator 25.0.0, SVG Export Plug-In . SVG Version: 6.00 Build 0)  -->
<svg version="1.1" id="Layer_1" xmlns="http://www.w3.org/2000/svg" xmlns:xlink="http://www.w3.org/1999/xlink" x="0px" y="0px"
	 viewBox="0 0 512 512" style="enable-background:new 0 0 512 512;" xml:space="preserve">
<style type="text/css">
	.st0{fill:#023D34;}
</style>
<g>
	<g>
		<path class="st0" d="M344.8,251.3c-3.2,1.6-5.2,3.9-6.3,7.5c-2.7,8.6-7.4,16.1-14.5,23.1c23-6.5,44.8-13.7,64.9-26.1
			c-3.1-0.5-6-1.3-7-4.5c-1.1-3.4,0.1-6.5,1.9-9.4c1.8-3,3.9-5.9,6.2-8.6c1.4-1.6,2.3-1.8,2.9,0.5c1.9,6.4,4.2,12.9,0,20.4
			c15-8.3,30-13,46.9-12.9c-1.1,1.4-2.2,1-3.1,1.1c-0.9,0.1-1.8,0.2-3.4,0.3c7.1,4.1,8.5,10.9,10.6,17.3c0.8,2.3,0.2,3.2-2.4,2.4
			c-3.9-1.2-7.9-2.2-11.4-4.5c-6.6-4.3-6.8-10-0.6-14.6c-14.6,1.8-27.3,8.4-39.5,16.1c-0.6,0.4-1.4,0.7-1.2,1.5c0.2,0.9,1.2,0.9,2,1
			c6.5,0.5,10.7,3.3,11.3,10.4c0.2,2.2,1.7,3.3,3.9,3.6c6.1,1,12-0.2,18-1.3c7.2-1.3,14.1-3.8,21-6.1c4.2-1.4,8.6-2.2,12.6,1.2
			c-7.4-2.5-13.3,1.3-19.7,3.8c-9.7,3.9-19.7,7.2-30.4,7.3c-2.9,0-3.7,1.3-2.5,4.6c2.1,5.9,5.9,10.8,10.4,15
			c0.2,0.2,0.4,0.4,0.6,0.6c5.9,6.6,12.9,11.8,20.5,16.3c7.4,4.4,12.8,10.6,14.6,19.3c1.7,7.9-1.8,14.1-7.3,19.3
			c1.5-3.6,4.6-6.4,5.1-10.4l0,0c2.5-8-1-14.2-6.1-19.8c-2.2-2.5-5-4.3-7.9-5.9c-10.9-5.9-20.8-13.1-28.8-22.7
			c-0.5-0.6-0.9-1.5-1.8-1.4c-1.1,0.1-0.9,1.1-1.1,1.9c-2.6,14.5-9.2,27.4-16,40.2c-2.5,4.6-4.6,9.4-6,14.5
			c-1.9,7.1-1.1,14,1.8,20.7c0.4,1,1.2,1.9,1.1,4c-4.5-7.1-6.4-13.9-5.5-21.5c1.1-9.1,5.1-17.2,9-25.3c6.1-12.8,10.7-25.9,11.4-40.1
			c0.3-6.2-0.2-12.2-2.6-18c-0.9-2.2-2.3-3.3-4.6-3.4c-3.2-0.2-6.4-0.6-9-2.7c-1-0.8-1.9-0.6-2.8,0c-15.7,10.2-33.1,16.7-50.5,23.3
			c-0.5,0.2-0.9,0.5-1.9,1.1c2.1,0.7,3.8,1.3,5.5,1.8c8.2,2.8,15.5,7.1,22.3,12.3c6.6,5.1,9.4,12.1,10.6,20
			c1.6,10.4,1,20.5-5.7,29.3c-1.8,2.4-3.9,4.6-6.9,5.7c5.7-4.9,9.1-11,10.1-18.4c1.2-9.4-0.6-18.4-5-26.8c-0.4-0.8-1-1.5-1.6-2.2
			c-1.5-1.5-3.1-4-5-3.6c-1.9,0.4-1,3.4-1.5,5.2c-0.7,2.5-1.7,4.7-3.3,6.7c-3.4,4.3-8.7,7.3-8.3,14c-1.4-4.2-0.7-7.8,1.9-11
			c3.7-4.5,6.1-9.3,5.4-15.3c-0.3-2.6-1-4.4-3.6-5.6c-7.2-3.2-14.6-5.4-22.6-6c-6.7-0.5-12.2,1.7-18,5.8c8,0,10.2,5.4,11.6,11.4
			c1.1,4.8,1.5,9.7,1.6,14.6c0,2.4-0.6,3.6-3.1,2c-4.3-2.6-8.7-5-12.3-8.6c-4-4.1-7-8.5-4.1-15.6c-8.8,6.1-15.6,12.7-20.3,21.2
			c-5.8,10.5-7.8,22.1-9.5,33.7c-2.1,14,0.4,27.7,3,41.4c3.8,19.7,9.7,38.9,14.5,58.3c2.3,9.1,4.8,18.1,6,27.3
			c0.1,0.8,0.2,1.6,0.3,2.4c0.3,4.5,0.1,4.7-4.3,4.7c-22.9,0.2-45.8,0.4-68.7,0.6c-4.7,0-4.8-0.3-4.2-4.9
			c2.3-17.3,6.4-34.2,9.4-51.4c2.6-14.8,4-29.8,5.3-44.8c0.3-4.1,0.9-8.1,1.4-12.2c1.4-11.8-2.7-22.3-7.9-32.4
			c-12-23.3-29.4-42.1-50.6-57.4c-4.4-3.2-6.7-3-11.1,0.3c-1.2,0.9-2.2,2-3.6,2.7c-4.9,2.4-5.4,6.8-5,11.3
			c1.1,11.6,5.5,21.8,13.9,30.1c4.6,4.6,9.2,9.2,12.7,14.7c2.4,3.9,4,8,3.5,12.6c-0.3,3.1-1.7,5.5-4.3,7.2c0.9-2.3,2.4-4.2,2.7-6.8
			c0.5-5.1-1.8-9.1-4.6-12.9c-3.3-4.5-7.6-8.2-11.8-11.8c-9.7-8.2-15.4-18.7-18-31c-0.1-0.4-0.3-0.8-0.5-1.6c-2,1.9-3,4.1-3.4,6.3
			c-1,6.7-4.4,12.2-8.3,17.4c-8.8,12-18.1,23.4-31.1,31.3c-7.9,4.8-16.1,7.8-25.5,5.9c2.5-0.2,5-0.3,7.4-0.6
			c12.7-2,21.9-9.9,30.2-18.8c6.9-7.3,12.8-15.5,17.7-24.2c2-3.5,3.5-7,4.1-11.1c1.4-8.2,6.3-14.6,12.4-19.9
			c3.7-3.2,7.2-6.7,11.5-9.1c1.7-1,1.4-1.5,0-2.5c-8.1-5.8-17.1-6.5-26.4-4.4c-4.7,1-9.2,2.6-13.8,3.9c-4.1,1.2-7,8.1-5.8,13.6
			c0.6,2.8,2.1,5.2,3.7,7.7c3,4.7,6.4,9.2,7.1,15c0.1,1.1,0.6,2.2-0.7,3.9c-0.5-9-6.4-14.8-10.7-21.5c-2.3-3.5-2.3-7.5-2.2-12.3
			c-6.8,8.7-9.3,18.1-11.5,27.9c0-1.1-0.1-2.3,0-3.4c0.1-1.1,0.3-2.3,0.5-3.4c1.2-8.2,3.9-15.9,8.7-22.8c0.5-0.7,1.6-1.4,1-2.3
			c-0.6-0.9-1.7-0.5-2.5-0.4c-6.7,0.4-13.4,0.9-20,2.3c-5.5,1.1-9.9,4-13.3,8.4c-9.9,12.6-10.1,26.6-5.7,41.2c0.5,1.2,1,2.4,1.5,3.7
			c-0.2,0.9,0.7,1.7-0.1,2.9c-3.2-4.7-4.2-9.9-5.3-15.1c-2.3-11-1.1-21.4,4.5-31.3c5.6-10.1,14.6-14.2,25.4-15.6
			c1.1-0.1,2.3,0,2.6-0.2c-1.3-1.8-2.5-3.5-3.9-5.2c-0.7-1-1.2-1.8,0.4-2.2c2.7-0.7,5.4-1,8,0c1.5,0.6,2.8,1.7,2.6,3.3
			c-0.6,3.7,1.5,2.7,3.6,2.5c8.2-0.8,15.8-3.7,23.3-6.9c-7.2-1.8-14.5-2.6-21.9-2.3c-8.2,0.3-16.3,1.4-24.3,3.3
			c-0.4,0.1-1.3,0.9-1.4-0.4c0-0.2,0.5-0.4,0.7-0.7l0,0c10-2.9,20.1-5.2,30.5-5.6c20.7-0.9,39.7,4.7,57.3,15.2
			c0.8,0.5,1.6,0.9,2.4,1.4c0.2,0.1,0.4,0,0.8,0c-0.4-2.9-0.8-5.8-1.2-8.7c-0.1-0.9-0.4-1.9,0.7-2.4c0.9-0.4,1.5,0.3,2.2,0.7
			c1.5,1,3.1,2,4.5,3.2c4.6,3.9,4,8-1.8,10.6c9.2,6,17.8,12.6,26,19.7c8.1,7.1,15.9,14.7,23.5,23.5c-0.1-3.8-1.3-6.5-2.3-9.1
			c-5.6-13.5-14.5-24.4-25.8-33.5c-5.9-4.8-11.7-9.8-16.9-15.4c-0.9-0.9-1.8-1.8-3-2.2c-16.6-6.1-33.5-11.3-51.2-12.7
			c-9.7-0.8-19.3,0.5-29,1.4c-1.1,0.1-1.8,0.2-1.5,1.9c0.5,2.5-2.6,5.6-5.2,5.4c-1.2-0.1-1.2-0.8-1.1-1.6c0.2-1.7,1.1-3.2,2-5
			c-18.2,4-36.1,7.7-51.9,18.8c1.2-3.2,4.3-4,5.8-6.1c0.4-0.2,0.9-0.4,1.3-0.6c14.3-7.8,29.5-12.8,46.1-16.9
			c-15.8-4.3-25.9-15-35.8-26c-3.4-3.7-6.7-7.5-10.2-11c-3.1-3.1-6.5-5.7-11.3-6.5c3-0.6,4-0.4,7.1,1.5c4.8,2.9,8.7,7,12.6,11
			c6.5,6.8,12.9,13.5,20.6,18.9c2.9,2.1,5.8,4,9.3,5c1.2,1,2.6,1.4,4,1.8c5.7,1.7,11.6,2.4,17.6,2.1c20.6-0.9,40.7,1.8,60.4,7.3
			c0.9,0.2,1.8,0.8,3.2-0.1c-7.9-8.3-11.2-20.3-22.3-26.7c2.2,7.2,0.5,10.4-6.1,12.5c-3.6,1.1-7.3,1.8-11,2.2c-3,0.3-3.1-0.9-2-3.1
			c3.1-5.9,5.7-12.2,14.1-14.1c-8.8-3.1-16.8-4.1-25.4-3.4c7,3.3,8.1,7.6,3.8,13.7c-2.3,3.3-5.1,6.1-8.2,8.7
			c-1.3,1.2-2.5,1.4-2.8-0.8c-1.1-6.9-2.8-13.9,2.6-20.3c-5.7,0.7-12.5,3.9-16.1,7.5c-1.5,1.5-2.9,2.8-1.9,5.3
			c0.6,1.6-0.3,3.2-1.8,4.1c-2.5,1.6-5,3.2-8.1,3.2c0.5-2.3,0.9-4.7,2-6.9c0.8-1.6,1.9-3.2,3.6-3.3c2.6-0.1,3.6-1.8,5.1-3.4
			c7.2-8,16.6-11.7,27-13.2c3.8-0.6,7.7-0.9,11.6-0.2c-9-5.3-17.5-11.3-28.6-11.9c-10.8-0.6-21.3,0.6-32.2,2.3
			c3.8,0.9,5.3,3.4,5.5,6.7c0.2,3.4-2.1,5.4-5.1,6.5c-4.6,1.7-9.3,1.9-14.1,1.8c-1.8,0-2.3-0.9-1.3-2.4c2.7-4.2,5.4-8.3,9.6-11.4
			c6-4.3,13.1-3.8,19.7-5.7c7-2,14.4-1.8,22.3-2.3c-3.7-3.9-6-8-8.1-12.3c-0.6-1.3-1.8-1.5-3.1-1.8c-3.2-0.5-6.3-1.3-9.1-2.8
			c-6.9-3.6-13.8-3.2-20.8-0.7c-5.8,2.1-11.5,4.4-17.2,6.6c-1.9,0.7-3.8,1.4-6,0.9c11.7-3.6,21.5-11.8,33.9-13.6l0,0
			c4.9-0.3,9.5,1.2,14.1,2.2c1,0.2,2.2,0.8,2.9-0.2c0.6-0.8-0.3-1.7-0.8-2.4c-2.8-4.7-5.7-9.4-8.4-14.1
			c-5.8-10.2-14.9-16.7-24.8-22.3c-1.1-0.6-2.2-1.2-3.3-1.8c-0.2-0.1-0.3-0.3-0.5-0.5c3.3-0.3,14.4,5.5,22.3,12.3
			c6.6,5.7,10.9,13.3,16.7,21c0.1-9.6,0.3-18.3-0.3-27c-0.3-4-0.8-7.9-2.3-11.7c-2-4.9-4.7-9.3-9.4-12.2c2.3,0,3.9,1.3,5.4,2.8
			c6.4,6.4,8.8,14.4,9.8,23.1c1.2,10.5,2.7,21,1.8,31.7c-0.1,0.6,0.2,1.4,0.4,2c5,10.1,11.5,18.9,22.3,23.6c4.6,2,9.1,4.3,13.7,6.3
			c7.8,3.3,15.3,7.1,21.3,13.9c0.9-6,4.7-9.6,8.3-13.4c1.5-1.5,2.4-1.5,2.9,0.7c0.6,2.8,1.2,5.6,1.1,8.4c-0.2,6.2-2.3,8.4-8.6,8.5
			c3.6,6,8.1,11.1,12.7,17c0-6.4,4.2-9.7,7.6-13.6c0.6-0.7,1.1-1.7,2.2-1.4c1.1,0.2,1.1,1.3,1.2,2.2c0.6,3.2,1.6,6.4,1,9.8
			c-1,5.5-3.7,7.4-9.1,6.2c6.1,8.1,13.2,15.1,21.5,20.9c9.6,6.8,18.8,14.1,26.1,23.5c0.2,0.2,0.5,0.3,1.1,0.7
			c0.6-5.8-0.1-11.3-0.9-16.7c-1.7-10.3-5.6-19.9-9.5-29.6c-0.2-0.5-0.4-1.1-0.6-1.6c-3.2-8.3-3.2-8.3-12.4-10.6
			c1.3,2.4,2,4.6,0.5,6.8c-1.5,2.1-3.7,2.9-6.1,3.6c-2.1,0.6-4.2,1-6.3,1.4c-1.6,0.3-2-0.3-1.6-1.9c1.3-4.8,4.8-9.2,9.5-11.3
			c-8.9-3.5-16.1-8.8-21.7-16.3c-3.3-4.3-5.7-9-7.7-14c-1.2-3.1-4.5-3.2-6.5-5.1c-0.4-0.3-0.9-0.1-1,0.5c-1.1,6.2-6.6,6.1-10.9,7.6
			c-0.7,0.2-1.6,0.3-2.4,0.4c-1.8,0.3-2.3-0.5-1.6-2.1c2.1-5,4.1-10.1,10.8-11.2c-4.1-4.4-6.9-9.6-13.8-9.3c-0.1,0.6,0.6,0.6,0.9,1
			c3.9,3.9,3.5,8.6-1.3,11.4c-4.1,2.4-8.8,3.2-13.4,3.9c-1.5,0.2-2.6-0.2-1.8-2.1c2.3-5.5,4.4-11,10.6-14.3
			c-4.7,0.2-8.9,0.9-13.1,0.1c1.8,6.3,0.5,8.3-6.7,10.2c-1.8,0.5-4.3,1.7-5.5,0.4c-1.2-1.4,0.8-3.5,1.5-5.2c1-2.5,2.8-4.4,5.5-5.9
			c-3.6-2-5.2-4.9-5.3-8.8c0.3,0.1,0.7,0.2,0.7,0.3c1.5,6.1,5.8,7.5,11.4,7.2c5.9-0.3,11.7-1.5,17.7-1.5c4.4,0,8,1.4,11.1,4.5
			c2.4,2.4,5,4.6,7.8,6.7c-1-2.8-2.8-5.1-4.8-7.3c-5.6-6.3-12.6-10.8-19.7-15.2c-3.4-2.1-6.7-4.3-9.7-7c-1.3-1.1-2.5-2.3-2.9-4.7
			c5.1,5.6,11,9,17.4,11.6c1.2,0.7,2.4,1.5,3.6,2.2c8.3,5.2,16.2,11,21.7,20.3c6.4-11.8,7.5-24.1,8.1-36.4c0-1.1-0.8-1.5-2.2-1.2
			c1.1,2.3,2.1,4.6,0.8,7c-1.5,2.7-4.2,3.7-6.9,4.6c-2.7,0.9-5.5,1.6-8.3,1.9c-1.2,0.1-2.2-0.2-1.6-1.7c2.2-5.4,4.2-11,10.7-13.4
			c-21.7-8.5-39.3-22.8-57.6-37c1.5-0.6,2,0.5,3.1,0.6c-2.4-8.2,1.3-15.3,4.2-22.4c0.4-0.9,0.7-2.2,1.8-2.4c1.4-0.2,1.7,1.3,2.3,2.2
			c2.4,3.9,5.1,7.6,6.4,12c2.6,8.7-0.3,13.3-9.6,14.5c4.1,2.7,7.5,5.6,11.6,7.7l0,0c4.7,3.9,10.1,6.6,15.2,9.8
			c0.5,0.3,1.2,0.5,2.3,1c-0.5-2.7-1.8-4.6-2.8-6.5c-3.8-7.2-5.8-14.4-4.8-22.9c1.5-12.5-4-23.5-10.1-34c-0.7-1.2-1.9-2.2-2-4.7
			c2.1,2.8,3.7,5.1,5.5,7.6c1.7-3.4,4.8-4.5,7.9-5.6c0.9-0.3,2-0.7,2.2,1.1c0.3,4.1-3.4,8.4-7.6,8.5c0.1,1.7,1.1,2.9,1.9,4.2l0,0
			c2.4,6.2,4.9,12.3,5.3,19c0.1,1.4,0.4,2.8,0.2,4.1c-1.8,7.9,1.5,14.5,5.2,21c2,3.6,4.6,6.8,5.5,10.9c0.3,1.3,1.4,1.7,2.4,2.2
			c5.2,2.4,10.4,4.5,16,5.9c2.8,0.7,3.8-0.3,3.6-3c-0.8-10.7-4.3-20-13.3-26.6c-0.8-0.6-1.8-1-2.3-2.3c1.2-0.3,1.9,0.5,2.6,1
			c9.7,6.5,14.3,16,15,27.1c0.8,12.7,1.4,25.5-0.8,38.2c-0.8,4.7-2.1,9.4-5.1,13.3c-0.8,1-1,2-0.4,3.2c0.8,1.7,1.6,3.5,2.6,5.9
			c2.6-9.8,10.7-12.6,18-16.3c2.8-1.4,3.6-0.9,3.2,2.2c-0.8,5.6-1.3,11.4-4.6,16.3c-3.5,5.3-7.8,6.2-13.5,2.6
			c7.1,10.7,16.8,16.6,28.7,19.1c2.4,0.5,1.6-1,1.5-2.2c-1.3-10.2-4.8-19.9-7.2-29.9c-2.7-11.1-6.4-21.9-6.7-33.4
			c-0.2-9.3,0.1-18.7,0.1-28c0-1.8,0.1-3.6-0.7-5.6c-3.1,2.5-6.7,3.2-10.2,4c-2.1,0.4-3.2,0-2.1-2.4c0.8-1.9,1.6-3.8,2.9-5.4
			c2.7-3.6,4.8-4.2,9.3-2.6c0.9-3.4,0.2-6.8-0.7-10c-1.4-5.4-3-10.7-4.7-16.1c-1.6-5-5.4-8.4-9.5-11.3c-5.7-4-11.6-7.6-17.4-11.5
			c-1.8-1.2-3.5-2.6-5.1-4.1c-3.9-3.6-4.2-6.9-0.8-11c2.4-2.9,5.6-5,8.8-6.9c1.4-0.8,2.5-0.7,2.5,1.2c0.1,3.8-0.1,7.5-1.6,11.1
			c-1.3,3-3.5,4.9-7.7,5c9.8,8.2,22.1,11.5,30.5,21.1c1.1-6.9,0.2-12.6-4.3-17.6c-5.6-6.2-7.7-14-9.4-22c1.4,3.4,2.8,6.7,4.3,10
			c1.9,4.3,4.3,8.3,7.7,11.6c2.1,2.1,3.6,4.7,4.6,7.6c2.1-4.2,6-5.2,9.8-6.5c1.3-0.4,2.1,0.1,1.7,1.5c-0.7,2.7-1.3,5.3-3.1,7.5
			c-2.2,2.6-4.7,3-7.8,0.4c0.1,7-0.8,13.3,2.4,19.4c5.4,10.2,6.1,21.6,7.2,32.8c0.1,0.7,0.1,1.4,0.2,2c0,0.2,0.3,0.3,0.4,0.5
			c0.1,0,0.3,0,0.3,0c7.9-9.7,15.6-19.6,18.6-32.2c1.2-5.2-0.5-9.9-2.8-14.4c-3.4-6.7-8.1-12.4-12.8-18.1c-3.1-3.8-6.3-7.5-9.6-11.5
			c-1.6,1.8-3,4.3-6,3.1c-3.7-1.5-5.5-4.7-7.3-7.8c-0.7-1.2,0.3-1.5,1.3-1.7c3.3-0.7,6.4,1.2,9.7,0.5c0.2,0,0.5,0.4,0.7,0.7
			c4.7,8.2,12.3,14,18.2,21.2c4.3,5.2,8.5,10.4,11.2,16.6c2.9,6.7,2.2,13.4-0.3,20c-4.4,11.2-10.6,21.4-18.2,30.8
			c-1.8,2.2-2.7,4.3-2.4,7.1c0.6,7,0.9,14,3.5,21c1.9-1,2.3-2.8,3.4-4.1c3.5-4.1,6.8-8.3,10.4-12.3c9.4-10.4,14.7-22.9,18.8-36
			c0.7-2.2,1.5-4.3-2.5-3.1c-2.6,0.8-4.6-0.9-5.9-3.2c-1.7-3.1-2.6-6.5-3.4-10c-0.5-2.3,0.6-2.6,2.5-1.8c4,1.6,8.2,3,11,7.5
			c0.4-8.1,0.5-15.3-3.5-22.1c-3.1-5.2-6.1-10.4-9.5-15.4c-5.6-8.6-9.6-17.9-8.7-28.5c0.3-3.9,1.4-7.5,4.3-10.5
			c-4,9.3-4,18.4,1.4,27.2l0,0c1.3,3.6,3.1,7.1,5.9,10.3c4.2-7.8,8.7-15.2,11.9-24.4c-2.7,2.1-5,2.5-6.8,0.3
			c-2.4-2.8-3.4-6.2-3.7-9.7c-0.1-1.5,1.2-0.9,2-0.7c3.4,0.8,6.1,2.6,9.2,6.2c0.3-0.9,0.6-1.6,1.1-2.8c0.3,0.7,0.5,1,0.5,1.3
			c-0.3,7.9-2.8,15.4-6.5,22.1c-4.2,7.8-4.6,14.5,1.5,21.3c1.7,1.9,2.8,4.4,4.5,7.3c1.5-4.8,4.1-8.5,3.5-13.6
			c-1.2-10.4,2-20.3,5-30.1c1.1-3.7,2-7.7,4.4-11c-2.7,12.1-6.2,24.1-5.4,36.7c4.2-7.2,8.9-14,15-19.7c0.6-0.6,1.2-1.2,1.8-1.8
			c4.8-3.3,9.6-6.6,15.4-7.8c0.6-0.1,1.1-0.2,1.7-0.3c0.2,0,0.4,0.1,1.1,0.4c-5.7,1.9-10.8,4.1-15.2,7.8c-9.9,8.3-15.4,19.3-20,30.9
			c-3.7,9.3-6.2,18.7-5.5,28.9c0.7,11.5-4.1,21.8-8.4,32.1c-2.2,5.4-4.9,10.5-8.2,15.4c6.7-1.4,12.6-4.3,19.2-7.6
			c-4-0.5-5.5-2.7-6-6c-0.4-3.1-0.2-6.2,0.6-9.1c0.4-1.6,1.6-0.6,2.4,0c4.1,3.1,7.7,6.5,6.9,12.4c5-1.9,5.6-3.3,5.7-8.2
			c0.2-8.8-1.7-17.2-4.7-25.4c-1.5-4.2-2.3-8.6-1-13.1c0.2-0.9,0.4-1.8,2.1-3c-2.8,9.4,1.8,16.6,4.6,24.1c1.6,4.1,2.3,8.3,2.7,12.7
			c0.1,1.2,0.1,2.5,0.9,3.9c3.2-2.6,5.2-6.2,7.9-9.6c0.5,1.8-0.4,2.7-1,3.7c-6,11.4-14.9,20-26.2,26.2c-4.4,2.4-4.3,2.5-1.4,6.4
			c3.8,5,5.7,10.7,6.2,17.1c-1.7-0.2-1.5-1.3-1.8-2.1c-1.6-4.2-3.9-8-7.2-11.1c-3.4-3.3-6.9-4.1-12-3c-10.6,2.2-11.9,11.4-15.9,18.7
			c-0.6,1.2,0.3,2.4,0.7,3.6c8,22.4,14.6,45.3,25.8,66.5c2.7,5.1,4.1,10.8,6,17.2c4.2-8.5,9.3-15.5,14.6-22.3
			c5.2-6.6,10.5-13.2,15.1-20.3c3.2-5.1,3-10-0.4-14.9c-1.4-2-2.8-2.1-4.6-0.9c-2.8,1.9-4.7,4.6-6.7,7.3c-1.1,1.5-0.1,2,1.1,2.4
			c2.4,0.8,4.8,1.6,6.5,3.5c1.8,1.9,2.3,4,0.2,6c-1.9,1.8-4.4,1.4-6.2-0.9c-0.8-1.1-1.3-2.4-1.9-3.6c-0.5-1.2-0.9-2.5-1.6-4.4
			c-4.3,4.6-6.9,10.6-13.2,12.5c6.2-5.1,8.3-12.8,12-19.3c1.7-3.1,3.4-6.2,6.2-8.5c2.1-1.7,1.2-2.7-0.8-3.3
			c-3.5-1.1-7.1-1.3-10.8-1.5c-6.8-0.4-13.7-0.6-20.1-3.2c-4.4-1.8-6.3-4.2-6.3-8.5c4.6,8.8,12.7,7.2,20.2,7.3c3.9,0,7.7-0.7,11.6-1
			c1.5-0.1,2.1-0.6,1.7-2.1c-2.6-8.9-0.3-17.4,2.6-25.7c0.9-2.5,1.7-4.9,2.5-7.4c-6-0.7-9.5-6.1-8.3-12.1c0.4-1.7,1.2-1.5,2.5-0.9
			c2.9,1.4,4.9,3.1,7.7,7c11.6-20.4,16.9-47.5,6.3-63.1c-3.4,5.5-7,5.7-10.9,0.3c-1.7-2.3-4.5-5.4-3.3-7.4c1.5-2.3,5.1,0.1,7.9,0.5
			c0.6,0.1,1.3,0.3,2,0.5c0.1-2-1.8-2.6-2.1-4.1c5.5,3.3,13.5,15.8,14.5,28.1c0.9,11-0.4,21.8-3.3,32.6c6.4-4.4,12.8-8.7,19.9-13.5
			c-4,0.2-7.1-0.5-9.2-3.5c-2-2.8-2.4-6-2.9-9.4c-0.6-4.8-0.2-9.5,0.1-14.3c0.2-2.5,1.1-3.1,3.2-1.5c4,3.1,8.1,6,11.3,9.9
			c3.4,4.1,5.5,8.7,3.6,14.2c13.2-5.7,22.7-20.6,21.7-33.5c-0.3-4.2-2.7-7.7-3.3-11.8c0.9,0.5,1.3,1.2,1.7,2.1
			c4.8,9.8,4.9,19.5-1.1,28.9c-4,6.2-9.4,11.1-15.2,15.6c-8.8,6.9-18.4,12.7-26.9,20c-3.9,3.4-7.6,7-9.3,12
			c-1.9,5.7-3.6,11.5-5.3,17.3c-0.2,0.8-0.8,1.6-0.1,2.4c6.6-5.8,14.9-6.6,23-7.8c1.6-0.3,2,0.9,1.4,2.2c-2.3,5.1-4.3,10.3-8.2,14.5
			c-2.4,2.7-5.3,4.8-9,5c-3.6,0.2-6.1-2-8.1-5.3c-0.1,7.6,5.4,16.1,15.1,23.9c0.6-1.1,0.7-2.4,0.8-3.6c1.4-12.3,5.4-23.5,12.9-33.4
			c2.1-2.7,4.8-4.9,6.2-8c0.8-0.8,1.6-1.5,2.4-2.3c3.8-3.3,7.5-6.7,11.6-10.4c-7-0.2-9.2-2.7-9.3-9.1c0-4.4,1-8.6,2.1-12.8
			c0.7-2.7,1.8-2.8,3.6-0.8c4.4,5,9.2,9.8,8.6,18.1c4.1-4.2,7.8-7.5,11.1-12.3c-3.7,0.8-6.1,0-7.7-2.4c-2.5-3.9-3.3-8.4-3.9-13
			c-0.2-1.6,0.6-2.1,2.1-1.5c5.5,2.6,11.6,4.5,13.1,12.2c0.4-0.7,0.6-1,0.8-1.3c10.7-18.2,10.3-37.3,4.8-56.8
			c-0.3-1.1-0.7-2.3-1.9-2.7c-4.3-1.5-7.5-4.7-11-7.4c-3.7-2.9-7.6-4.6-12.3-3.7c-1.2,0.2-2.9,0.1-3.2,1.3c-0.3,1.3,1.4,1.5,2.3,2.1
			c4,2.6,7.9,5.2,7.7,10.8c-1.6,2.2-3.5,4.1-6.5,3.4c-3-0.6-4-3.1-4.7-5.8c-0.5-2.1-0.9-4.2-1.2-6.4c-0.5-3.6-0.6-3.7-3.8-1.6
			c-6.6,4.3-11.6,10.2-16.3,16.4c-1.5,2-2.9,4-4.4,6.1c-0.7-0.9-0.1-1.4,0.2-1.9c5-8.5,10.8-16.4,18.8-22.4
			c4.9-3.7,10.4-6.1,16.8-5.3c2.8,0.3,5.1,1.7,7.5,3.1c1.9,1.1,3.8,2.4,6.1,3.9c-4.2-8.4-17-14-28.9-13.2c1.3,4.9-1.5,9.8-6.5,11.5
			c-1.4,0.5-1.9-0.1-1.9-1.4c-0.1-2.3-0.1-4.6,0.8-6.7c1.2-2.7,0.3-3.3-2.2-2.6c-0.8,0.2-1.8,0.6-2.6-0.1
			c10.7-4.5,31.1-3.7,41.2,7.2c2.6,2.8,2.8,2.7,3.8-1c1-3.7,1.9-7.5,3-11.2c0.4-1.5,0.6-2.1-1.4-2.3c-2.8-0.3-7.5-6.9-7.2-9.5
			c0.1-1.2,0.9-1.2,1.7-1c3.4,0.6,6.7,1.3,9,4.3c0.4,0.5,0.5,1.9,1.7,1.1c0.7-0.5,1.5-1.4,1-2.3c-2.3-4.6,0.6-7.8,2.8-11.2
			c1.1-1.7,2-1.6,2.8,0.3c1,2.4,1.9,4.9,1.6,7.6c-0.2,1.7-0.7,3.5-2.3,3.8c-5.7,1-6.2,5.6-7.3,9.9c-0.1,0.4-0.1,0.9-0.2,1.4l0,0
			c-1.7,5.6-1.8,11.5-2.6,17.2c-0.4,3.3,2.9,6.3,3.9,10.1c2.9-5.4,7.4-8.3,12-11.2c2.4-1.5,3.4-0.7,3.1,1.9
			c-0.2,2.7-0.3,5.5-0.9,8.1c-1.6,7.5-5.1,9.5-12.5,7.1c3.8,19.9,3.4,39.1-8.6,56.6c4.7-2.1,19.8-18.6,24.4-26.8
			c-1.9,1.3-3.5,2-5.3,1.2c-1.8-0.9-2.6-2.5-3.1-4.3c-0.8-2.4-1-4.9-1-7.4c0-1.7,0.8-1.9,2.1-1.2c3,1.6,6.1,3.2,7.6,6.5
			c0.8,1.7,1.4,2.8,2.6-1c0,4-1.6,6.2-2.5,9c5.1-0.2,7.9,3.3,10.9,6.6c0.9,1,1.6,2.1-0.4,2.8c-4.9,1.9-10.9,0.1-13.7-4.7
			c-3.4,4.3-6.7,8.4-9.8,12.7c-2.5,3.6-5.6,6.6-8.9,9.4c-9.8,8.5-20.2,16.4-29.1,25.9c-8.7,9.2-16.3,19.1-18.9,31.9
			c-0.7,3.3-1,6.8-1.4,10.1c-1.4,12.3-7.1,22.7-13.9,32.7c-6.2,9.1-13.4,17.6-19,27.2c-1.5,2.5-2.9,5.1-3.2,8.2
			c1.3-1.5,2.6-3,3.9-4.5c4.2-4.7,8.4-9.3,12.6-13.9c7.2-7.9,12.9-16.7,17.1-26.6c3.5-8.4,8.2-16.3,13.6-23.7
			c9.5-13.1,22.5-19.8,38.3-21.8c6.9-0.9,13.9-0.6,20.8-0.5c2,0,3.8-0.4,5.4-1.6c2.6-1.9,5.1-3.9,7.8-5.5c8.2-5,8.6-12.5,6.9-20.6
			c-0.8-3.6-2.5-6.8-5-9.6c-3.5-3.9-7.5-7.3-12.6-10.9c0.8,3.1,0.1,5.2-2.2,6.1c-3,1.2-6.3,1.2-9.4,0.7c-1.5-0.3-0.7-1.4-0.2-2.1
			c2.1-3.1,4.4-5.8,8.8-7c-0.8-0.3-1.5-0.6-2.3-0.9c0.2-0.3,0.4-0.6,0.6-0.9c1.4,0.6,2.8,1.1,4.2,1.7c0.6,0.3,1.1,0.6,1.7,0.9
			c3.8,2.7,7.6,5.4,11.4,8.1c5.7,4.2,8.8,10,10.6,17.5c2.5-4.5,4.6-8.3,7.1-12c1.2-1.8-0.3-4.4-0.6-7c-2.6,1.8-5.1,3.3-8,2
			c-3.2-1.4-4.5-4.4-5.5-7.4c-1-2.9-1.8-5.9-2.3-8.9c-0.3-1.9,0.1-2.6,2.1-2c5.9,1.8,10.3,4.7,14.4,9.8c0.1-8,3.4-15.6,0.8-23.7
			c-1.6,7.9-6.6,10-13.2,5.7c-3.8-2.5-7-5.8-10-9.3c-0.9-1.1-1.6-2.2,0.5-2.6c7.1-1.2,14.2-3,21.2,2.4c-1.6-5.6-4.5-10.1-5.9-15.1
			c5.6,9.4,13.1,18.1,11.9,30.3c-0.4,4.6-0.5,9.3-0.7,14c-0.1,1.8,0.1,3.6,0.9,5.6c5.2-4.4,10.2-8.7,15.3-13.1
			c-7.6-1.4-9.5-3.7-9-11.4c0.2-3.1,0.8-6.1,1.3-9.1c0.3-1.5,1.1-2,2.3-0.8c3.1,2.9,6.3,5.6,8.2,9.5c1.3,2.6,2.1,5.3,0.3,9.1
			c5.7-4.6,9.4-9.6,12.2-15.2c-1.6,8-7.1,13.4-12.7,19.3c3.8,0.9,6.2,3.3,8.4,6c1.5,1.8,1.2,2.7-1.2,3.1c-6,0.8-8.9-0.4-11.3-5.1
			c-5.2,4.7-10.2,9.4-14.2,15.1c-0.8,0.5-1.3,1.2-1.5,2.1c-4.1,4.7-5.5,10.6-8.4,16.3c5-0.3,7.6,2.8,10.2,6c0.8,1,1.3,1.9-0.5,2.5
			c-4.6,1.4-9.3-0.1-12-4c-2.7,4.8-6.7,8.3-11.2,11.9c3.6,1.7,7.2,1.3,10.6,1.6c7.8,0.8,15.6,1.5,23.5,0.3c7-1.1,12.7-4.2,16.8-10
			c2.6-3.6,4.5-7.7,6.5-11.6c1.9-3.7,3.9-7.2,8.3-10c-3.4-0.1-6.1,0.1-7.8-2.4c-1.8-2.8-1.8-5.8-1.3-8.9c0.5-3.5,1.4-6.9,2.6-10.3
			c0.6-1.8,1.5-2.2,2.8-0.6c2.3,2.9,4.9,5.7,6.5,9.2c2.8,6.1,1.7,10.8-3.5,14.9c-0.8,0.6-1.6,1.3-1.9,2.3c-0.3,0.3-0.5,0.5-0.8,0.8
			c-2.4,2.6-3.3,6-4.6,9.1c-3.1,7.3-6.7,14.3-14,18.4c-3.5,2-7.3,3.1-11.3,3.7c-2.4,0.4-2.6,1.3-1.1,3.1c3.2,3.7,7.4,6.1,11.5,8.5
			c0.4,0.2,0.9,0.4,1.3,0.2c3.6-1.5,7.6-1.5,12.4-2c-3.1-1.2-5.2-2.3-5.8-4.9c-0.7-2.7,0-5.2,1.5-7.5c2.2-3.5,4.9-6.5,7.9-9.4
			c2.1-1.9,2.8-1.1,3.3,1.1c1.3,6.4,2.9,12.7-2,19.4c6.7-2.6,11.2-6.3,15.5-11.3c-2.3-0.4-4.4-0.7-5.1-3c-0.9-2.7,0.6-4.9,1.8-7
			c0.7-1.4,1.3-3.6,2.9-3.5c1.9,0.1,1.9,2.6,2.4,4.1c1.5,4.1,0.9,7.9-1.8,11.5c-6.3,8.3-14.4,13.5-24.8,14.8c-1.1,0.1-2.3,0.2-3.1,1
			c6.8,8.7,16,10,26.1,8.5c6.6-1,13.3-2.2,19.9-3.3c0.6-0.1,1.3-0.5,2.1,0.6c-7.3,1.7-14.5,3.3-21.6,4.9c-4.6,1-9.2,1.6-13.9,0.8
			c-4.3-0.7-8-2.3-11.4-5.1c-3.7-3-8-5.3-12.2-7.5c-5.4-2.8-10.5-6-13.6-11.5c-0.8-1.4-2.1-1.6-3.5-1.6c-14.8-0.3-29.6-0.8-44.4,0.1
			c-13.2,0.9-25.7,3.9-35.4,14c-5.7,6-9.2,13.3-12.5,20.6c-2.2,4.9-4.1,9.9-6,14.9c-3.9,10.6-10.7,19.3-17.5,28
			c-5.9,7.6-12.1,14.8-17.1,23.2c12.7-10.6,28.9-12.6,44.4-18.5c-3.3-0.2-5.8-0.6-7.9-2.2c-2.2-1.8-3.1-4.2-3.1-6.9
			c-0.1-2.1,0.5-4.1,1.2-6c2-5.5,4.9-10.5,8.1-15.4c1.2-1.8,1.9-1.6,2.8,0.3c3.4,7.6,7.6,14.9,5.5,23.8c-0.1,0.6-0.2,1.2,0.3,1.5
			c0.7,0.5,1.3-0.1,1.8-0.6c7.6-7.9,14.8-16,14.4-28c-0.2-6.7,0.3-13.2,2.3-19.6c0.5-1,1-1.9,1.5-2.9c1.7-3.9,3.8-7.3,7.4-9.8
			c-4.3,5.4-6.7,11.6-7.8,18.3c-0.6,4-0.6,7.9,0,11.9c0.3,1.6,0.9,2.3,2.5,1.4c9.3-5.2,19.8-7.3,29.6-11.5
			c8.8-3.8,15.8-9.4,19.6-18.5c0.2-0.4,0.5-0.7,1-0.9c-1.1,5.4-3.9,9.9-7.7,13.9c-4.6,4.7-10.2,7.9-16.2,10.6c-1.3,0.6-2.6,1.3-4,2
			l-0.2,0.1C357.2,244.7,350.7,247.4,344.8,251.3L344.8,251.3z"/>
		<path class="st0" d="M54,146c-4.6,2.4-9.3,1.9-13.8-0.2c-6.1-2.8-11.7-6.6-17-10.8c-2.1-1.7-1.3-2.4,0.6-3.1
			c5.5-1.9,10.8-4.2,16.6-5c2.2-0.3,4.3-0.4,6.5-0.1c10.2,1.3,13.9,8.8,8.6,17.7C55.1,145,54.6,145.5,54,146z"/>
		<path class="st0" d="M39.3,187.2c-1.1-3-1.9-5.5-2.8-8c-0.6-1.7,0.1-2.5,1.8-2c3.4,0.9,6.9,1.8,9.5,4.4c1.6,1.6,2.8,3.4,1.9,5.8
			c-0.8,2.3-2.6,3.6-4.9,3.5c-2.1-0.1-2,0.9-2,2.5c0.3,6.9-3.9,10.7-10.7,9.7c-6.5-0.9-12.4-3.6-18.2-6.6c-1.3-0.7-2.2-1.6-0.5-2.7
			c5-3.1,10-6.4,15.9-7.6C32.6,185.5,35.8,185.7,39.3,187.2z"/>
		<path class="st0" d="M96,103.3c2.6-0.2,5.1,0.3,7.1,1.8c2.1,1.6,2.4,0.5,2.7-1.3c0.6-3.3,1.9-6.3,3.3-9.3c0.6-1.4,1.4-1.9,2.4-0.3
			c2.2,3.5,4.8,6.9,5.2,11.3c0.5,5.2-2.6,8.2-7.7,6.8c-2-0.5-2.4-0.2-3,1.7c-1.2,4.3-4.7,6.4-9.2,5.7c-6.8-1.2-12.3-5.2-17.8-9
			c-1.4-0.9-1.1-1.9,0.3-2.5C84.7,105.8,90,103.4,96,103.3z"/>
		<path class="st0" d="M418.1,80.5c-0.7,4.9-1.1,9.9-2.7,14.7c-1,3.1-2.5,5.9-4.7,8.2c-4.1,4.3-9.3,4.5-13.6,0.5
			c-3.9-3.6-4.1-8.8-0.4-13.1c3.7-4.4,8.6-7,13.5-9.7c1.7-0.9,3.4-1.8,5.2-2.6C417.4,77.6,418.5,78.1,418.1,80.5z"/>
		<path class="st0" d="M347.5,53.6c2.9-6.2,6.4-8,13.2-6.4c6.9,1.6,12.8,5.2,18.8,8.6c1.4,0.8,1.4,1.7,0,2.5
			c-6.3,3.4-12.6,6.9-20,7.5C351.4,66.4,346.9,61.8,347.5,53.6L347.5,53.6z"/>
		<path class="st0" d="M229,225.1c0-2.9,2-5.5,4.9-7.4c6-3.8,12.7-5.4,19.5-6.9c1.4-0.3,2.4,0,1.8,1.7c-2,5.6-3.6,11.3-7.2,16.1
			c-1.7,2.2-3.6,4.1-6.2,5.3C235.9,236.7,229,232.4,229,225.1z"/>
		<path class="st0" d="M349.4,288.2c0.3-2.9,2-5.3,5-7c3.1-1.8,6.1-1.4,9,0.5c3.5,2.3,5.3,5.9,7,9.5c1.7,3.6,3.1,7.3,4.4,11.1
			c0.4,1.1,0.9,2.9-1.3,2.4c-6.4-1.4-13-2.5-18.5-6.5C351.3,295.3,349.4,292,349.4,288.2z"/>
		<path class="st0" d="M352.6,179.1c-0.1,7.3-3.4,11.2-9.6,10.9c-5.2-0.2-9-4.4-8.4-9.6c1-7.9,5.3-14.4,9.6-20.9
			c0.8-1.2,1.6-1,2.2,0.3C349.3,165.9,352.7,171.9,352.6,179.1z"/>
		<path class="st0" d="M153,304.2c0.1-2.9,1.8-5.5,4.7-7.2c2.9-1.7,5.8-1.5,8.7,0.3c3.8,2.4,6,6.1,8,10c1.7,3.3,3.1,6.8,4.6,10.2
			c0.5,1.2,0.5,2.5-1.3,2.2c-7.6-1.4-15.4-2.2-21.5-7.7C154.2,310.1,153,307.7,153,304.2z"/>
		<path class="st0" d="M48.6,269.8c-0.4,0.2-0.9,0.4-1.3,0.6c-4.4,1.7-8.1,0.2-11.2-2.8c-4.4-4.3-7.7-9.6-10.5-15.1
			c-1-2-0.3-2.8,1.8-2.6c4.7,0.5,9.6,0.3,14.2,1.8c0.9,0.3,1.7,0.5,2.6,0.9C52.7,256.3,54.4,262.4,48.6,269.8z"/>
		<path class="st0" d="M33.6,285.3c6.2,0,10.2,5,8.6,11c-1.5,5.5-5.6,9.3-9.1,13.4c-0.5,0.6-1.1,1.2-1.7,1.7
			c-1.4,1.1-2.5,3.6-4.1,3.2c-2-0.5-1.6-3.3-1.9-5c-0.9-5-2-10-0.9-15.2C25.8,288.7,29.1,285.3,33.6,285.3z"/>
		<path class="st0" d="M415.9,301.2c-0.2-0.2-0.4-0.4-0.6-0.6c-0.4-0.9-0.9-1.9-1.3-2.8c-2-4.6-0.8-8.8,3.7-11
			c6.8-3.3,14.1-3,21.4-2.8c1.4,0.1,1.7,1,1,2.2c-3.3,5.3-6.6,10.8-12,14.3C424.3,303.1,420.1,303.6,415.9,301.2z"/>
		<path class="st0" d="M391.5,88.7c0.1,3.7-1.8,6-5,7.4c-3.1,1.4-6,0.9-8.5-1.4c-1.7-1.6-2.8-3.5-3.7-5.7c-1.9-4.7-3.2-9.5-4-14.4
			c-0.2-1.6-0.1-2.7,1.8-2c5.8,2.3,11.9,4.1,16.2,9C390.2,83.7,391.5,85.9,391.5,88.7z"/>
		<path class="st0" d="M328.2,107.1c-0.1,3.4-2,5.7-4.9,7.2c-2.8,1.4-5.5,1.2-8-0.8c-1.7-1.4-3.1-3-4-5c-2.1-4.8-3.4-9.9-4.3-15
			c-0.4-2.2,0-3.4,2.6-2.3c4.7,2,9.5,3.7,13.6,7C326,100.5,328,103.3,328.2,107.1z"/>
		<path class="st0" d="M81.4,178.7c-6.7,0.6-9.7-1.6-11.4-8c-1.5-5.5-1.2-11.1-1.2-16.7c0-1.4,0.4-2.5,2-1.4
			c4.9,3.2,10,6.1,13.4,10.9C88.8,170,87.9,174.6,81.4,178.7L81.4,178.7z"/>
		<path class="st0" d="M132.6,150.1c0,3.3-2,6.2-5.4,7.6c-3.2,1.3-6,0.6-8.4-1.8c-2-2-2.9-4.6-3.6-7.2c-1.2-4.5-1.6-9.1-1.8-13.8
			c-0.1-1.5,0.1-3.1,2.2-2c5.3,2.9,10.6,5.7,14.4,10.6C131.5,145.5,132.4,147.7,132.6,150.1z"/>
		<path class="st0" d="M12.6,223.3c-1.4-0.2-3.1,0.6-3.8-0.9c-0.5-1.2,0.8-2.3,1.4-3.3c2.9-4.6,5.7-9.3,10.8-12.1
			c4.7-2.6,9.3-1.7,11.6,2.4c2.5,4.5,0.9,9.1-3.9,11.3C23.5,222.9,17.9,222.6,12.6,223.3z"/>
		<path class="st0" d="M484,287.6c-4.2,0-8.4-0.4-12.4-2.1c-4.1-1.8-6.2-4.7-6-8.2c0.2-3.1,1.8-5.4,4.6-6.7c3-1.4,5.9-0.5,8.3,1.3
			c4.7,3.6,7.9,8.4,11,13.4c1,1.7,0.1,2.3-1.5,2.3C486.8,287.7,485.4,287.6,484,287.6z"/>
		<path class="st0" d="M41.6,328.1c-1.5-0.4-4.2,1.2-5.2-0.8c-0.8-1.7,1.4-3.4,2.4-5c2.4-3.9,5.1-7.6,9.2-9.9c2.9-1.6,5.9-2.6,9-0.5
			c2.8,1.9,4,4.7,3.5,8c-0.5,3.8-3.3,5.6-6.6,6.6C50,327.6,46,328.2,41.6,328.1z"/>
		<path class="st0" d="M192.3,107.8c-0.6,4.7-0.3,9.3-2.4,13.5c-2.4,4.8-6.5,6.8-10.5,4.9c-4-1.9-5.6-6.1-3.5-10
			c3.2-5.9,8.7-9.4,14.5-12C193.2,103,191.6,106.7,192.3,107.8z"/>
		<path class="st0" d="M267.9,38.1c-3,0-5.3-1.3-6.7-3.9c-1.4-2.5-1.1-5.2,0.6-7.4c4-5.1,9.6-7.8,15.4-10.3c1-0.4,1.9-0.1,1.7,1.2
			c-0.8,6-1.2,12-5,17.1C272.4,36.8,270.5,38.1,267.9,38.1z"/>
		<path class="st0" d="M406.1,258.5c-0.1-3.9,1.8-6.1,4.6-7.5c3-1.4,5.6-0.3,7.8,1.7c3.3,3,4.9,7,6.7,10.9c0.8,1.8,2.7,4.1,1.6,5.6
			c-1.3,1.8-3.8,0-5.7-0.4c-4.4-0.8-8.6-2.1-12.1-5.2C407.3,262.3,406.1,260.5,406.1,258.5z"/>
		<path class="st0" d="M453.1,250.8c-1.7,0.1-4-0.3-6.2-1.5c-3.1-1.7-4.4-4.7-3.6-8c0.8-3.4,3.4-5.3,6.9-5.3c1.5,0,2.9,0.3,4.3,0.9
			c4.6,2.1,8.5,5.2,12.2,8.6c1.4,1.3,1.3,2.2-0.7,2.8C462,249.5,458.1,250.8,453.1,250.8z"/>
		<path class="st0" d="M127.1,75.4c7.6,0.1,11.5,5.3,8.6,10.8c-1.5,2.8-3.8,4-6.8,3.5c-6.2-0.9-10.9-4.8-15.8-8.4
			c-1-0.7-0.7-1.6,0.4-2.1C118.1,77.3,122.6,75.6,127.1,75.4z"/>
		<path class="st0" d="M122.5,60.2c0.4-5.1,1.6-10,3.3-14.7c0.3-0.9,0.9-2.4,2.1-1c4.1,4.8,8.3,9.6,8.7,16.3
			c0.3,5.6-5.4,9.2-10.4,6.6C123.3,65.8,122.9,62.9,122.5,60.2z"/>
		<path class="st0" d="M143.7,87.1c2.8-3.9,6.4-7.1,10.5-9.6c2.8-1.8,6.1-2.9,9.4-1.4c3.1,1.3,4.4,4,4.1,7.2c-0.3,3.4-2.4,5.4-5.6,6
			C155.8,90.4,149.7,89.2,143.7,87.1L143.7,87.1z"/>
		<path class="st0" d="M164.9,49.8c0,5.5-2.7,9.2-6.8,9.4c-5,0.3-8.3-3.4-7.4-8.3c1.1-5.8,4.8-10.2,8.3-14.7
			c0.9-1.2,1.8-0.8,2.3,0.4C163.1,41,164.7,45.3,164.9,49.8z"/>
		<path class="st0" d="M364.4,165.9c-1.8-0.3-4.8,1-5.8-0.9c-1-1.9,1.7-3.6,2.9-5.3c2.2-3.2,4.7-6.1,8.3-7.9c4.6-2.2,8.5-1,10.3,3.1
			c1.9,4.2-0.1,8.1-5,9.8C371.8,165.8,368.2,166,364.4,165.9z"/>
		<path class="st0" d="M359.4,205.4c3.3,0.4,7.3,0.7,11.1,1.7c2.1,0.5,2.2,1.2,0.8,2.7c-2.8,2.9-5.6,5.6-9.1,7.7
			c-2.3,1.4-4.8,2-7.5,1.9c-3.3-0.2-5.2-2-5.9-5.1c-0.8-3.5,0.5-6.2,3.6-7.6C354.4,205.7,356.5,205.3,359.4,205.4z"/>
		<path class="st0" d="M94.7,297.1c-0.6,3.8-1.1,7.6-1.8,11.4c-0.2,1.5-0.9,2.5-2.5,1.1c-4-3.6-7.9-7.3-9.6-12.6
			c-1.6-5,0.7-9.1,5.4-9.9c3.3-0.5,5.8,0.9,7.1,3.9C94.2,293,94.5,295,94.7,297.1z"/>
		<path class="st0" d="M191,382.9c-0.1,1.5-0.4,4.2-0.6,6.9c-0.1,1.2-0.5,2.7-2,1.5c-4.5-3.5-9.2-6.8-11.2-12.5
			c-1.7-4.8,0.3-8.7,5-9.7c3.1-0.7,6,0.8,7.5,4C190.8,375.7,191,378.7,191,382.9z"/>
		<path class="st0" d="M184,350.7c-3-0.1-5.5-0.4-7.3-2.4c-2.1-2.4-2.3-5.1-0.9-7.9c1.5-2.9,4.1-4,7.1-3.5
			c5.5,0.8,10.3,3.5,14.9,6.5c1.1,0.7,1.5,1.6,0.1,2.3C193.4,348.1,188.8,350.4,184,350.7z"/>
		<path class="st0" d="M132.3,359.8c0.2,3.8-0.7,7.4-1.4,11.1c-0.3,1.4-0.9,2.2-2.3,0.9c-3.9-3.8-8-7.4-9.7-12.9
			c-1-3.1-0.8-6,1.7-8.1c2.1-1.7,4.6-2.5,7.3-1.3c3.1,1.4,4.1,4,4.3,7.2C132.3,357.8,132.3,358.8,132.3,359.8z"/>
		<path class="st0" d="M147.2,334.1c-0.7,4.8-2.8,9.9-5.7,14.8c-0.7,1.2-1.5,1.4-2.3,0.1c-2.8-4.6-5.6-9.1-6-14.7
			c-0.3-4.7,2.6-8.1,6.7-8.3C144.2,325.8,147.2,328.9,147.2,334.1z"/>
		<path class="st0" d="M54,146c0.5-0.5,1-1,1.5-1.5c1.3-0.3,2.6-0.8,4-0.8c4.8-0.1,8.3,4.4,6.7,8.7c-2.4,6.4-8.2,9.5-13.6,12.8
			c-1.5,0.9-1.5-0.8-1.6-1.7C50.3,157.3,51,151.4,54,146z"/>
		<path class="st0" d="M92.9,207.8c5.5,0,8.6,5.4,5.9,10.4c-2,3.7-5.3,6.1-8.7,8.5c-1.6,1.1-3.3,3.5-5.1,2.6c-1.9-1-0.8-3.7-0.8-5.7
			c-0.1-4.1,0.4-8.2,2.6-11.8C88,209.4,89.9,207.8,92.9,207.8z"/>
		<path class="st0" d="M171.6,377.3c-0.2,3.5-1.9,5.6-4.6,6.9c-4.4,2.3-9.3,3-14.1,3.8c-1.4,0.2-2.4-0.2-1.7-1.9
			c2.1-4.9,3.9-10,8.4-13.5c2.5-1.9,5.3-2.7,8.3-1.2C170.3,372.8,171.2,375,171.6,377.3z"/>
		<path class="st0" d="M167,367.8c-4.8-0.5-9.6-3.9-14.6-7.1c-1.1-0.7-1.2-1.8,0.2-2.3c5.4-2.3,10.7-5.3,16.9-4.1
			c3.9,0.8,6.2,3.7,5.8,7.5C174.9,365.7,172.5,367.8,167,367.8z"/>
		<path class="st0" d="M101.1,131.7c-0.1-4.1,0.3-8.2,2.5-11.9c2.4-4.1,6-5.2,9.7-3c3.7,2.2,4.6,6,2.1,10
			c-2.9,4.6-7.5,7.5-12.1,10.3c-1.4,0.9-2.1,0.2-2.2-1.3C101.1,134.5,101.1,133.1,101.1,131.7z"/>
		<path class="st0" d="M122.8,285.3c4.9,0.7,9.9,3.6,14.8,6.7c1.1,0.7,0.7,1.5-0.3,2c-4.6,2.3-9.1,4.9-14.3,5.1
			c-6,0.3-9.8-3.9-8.2-9.1C115.7,286.7,118,285.2,122.8,285.3z"/>
		<path class="st0" d="M117.2,374.4c0.1,3.8-0.8,7.4-1.5,11.1c-0.2,0.9-0.4,2.6-1.8,1.4c-4.7-4.3-9.6-8.5-10.7-15.3
			c-0.4-2.7,0.6-5,2.9-6.5c2.2-1.5,4.7-1.6,7.1-0.5c1.8,0.8,2.7,2.4,3.3,4.1C117.3,370.6,117.2,372.5,117.2,374.4z"/>
		<path class="st0" d="M333.8,247.5c-0.1,3.1-1.6,5.1-4.1,6.4c-2.3,1.2-4.8,1.1-6.7-0.7c-5.2-4.7-5.7-11.4-6.7-17.7
			c-0.1-0.8,0.5-1.1,1.3-1.1c4.6-0.1,14.3,6.9,15.8,11.3C333.6,246.3,333.7,247,333.8,247.5z"/>
		<path class="st0" d="M32,228.5c-0.2-3.6,0.2-7.4,2.2-10.9c2.3-4,6.2-5.3,9.8-3.3c3.8,2.1,4.7,6.2,2.1,10.2
			c-2.9,4.5-7.4,7.3-11.7,10.2c-1.5,1-2.3,0.2-2.3-1.5C32,231.7,32,230.3,32,228.5z"/>
		<path class="st0" d="M327.5,190.6c0,4-2.4,6.8-6.3,7.2c-3.6,0.4-6.6-1.8-7.2-5.8c-0.9-5.8,1.1-11.2,3-16.6c0.3-0.9,1-1.5,1.8-0.6
			C322.8,179.4,327.2,183.9,327.5,190.6z"/>
		<path class="st0" d="M409.1,228.8c-2,0-4.2-0.1-6.5-0.6c-1.7-0.3-1.9-1.1-0.9-2.3c2.6-3.6,5.3-7.2,9.1-9.6
			c2.1-1.4,4.5-2.4,7.1-1.9c3.3,0.6,5,2.9,5.4,6.2c0.4,3.5-1.6,5.6-4.5,6.8C415.8,228.8,412.6,228.9,409.1,228.8z"/>
		<path class="st0" d="M406.9,183.1c0.7-5.3,3.5-10.3,6.6-15.2c0.8-1.3,1.5-0.5,2,0.4c2.4,4.5,4.8,9.1,5.1,14.3
			c0.2,4.8-2.6,8.2-6.6,8.3C409.8,191,406.9,188,406.9,183.1z"/>
		<path class="st0" d="M421.9,158.4c0-1.1,0-1.6,0-2c0-3.4,0.4-3.7,3.4-2c4.5,2.6,9.1,5.2,11.4,10.3c1.1,2.4,1.1,4.9-0.7,7.1
			c-1.7,2.2-4,2.8-6.7,2.5c-2.7-0.4-4.1-2.3-5.1-4.5C422.5,165.9,422.2,161.8,421.9,158.4z"/>
		<path class="st0" d="M222.5,145.7c1.7,0.1,4-0.1,6.3,0.5c1.5,0.4,2,1.1,1,2.4c-2.9,3.8-5.9,7.6-10.3,9.8
			c-4.7,2.2-9.2,0.6-10.3-3.7c-0.9-3.6,0.6-6.5,4.1-8C216.1,145.5,219,145.7,222.5,145.7z"/>
		<path class="st0" d="M380.4,319.7c-2.5-0.4-5.8-0.8-9.1-1.3c-2.3-0.4-3.2-1.3-1.2-3.3c3.3-3.3,6.5-6.7,11.1-8.2
			c4.5-1.5,8,0.2,9.2,4.3c0.9,3.2-0.3,5.8-3.4,7.3C385.2,319.4,383.2,319.7,380.4,319.7z"/>
		<path class="st0" d="M404.8,316.8c0.2-2.7,0.7-5.3,3.1-6.9c2.4-1.6,5-1.4,7.4,0.1c2.4,1.5,3.1,4,2.6,6.5c-1,5.1-3.7,9.5-6.7,13.6
			c-0.8,1.1-1.6,1.2-2.3-0.1C407,325.7,405,321.5,404.8,316.8z"/>
		<path class="st0" d="M386.6,287.7c-2.6-0.4-5.8-0.9-9-1.4c-2.3-0.3-2.8-1.3-1-3c3.2-3.1,6-6.5,10.3-8.2c2.9-1.1,5.8-1.4,8.3,0.9
			c2,1.9,2.3,4.4,1.6,6.9c-1,3.2-3.8,4-6.7,4.5C389.2,287.7,388.3,287.6,386.6,287.7z"/>
		<path class="st0" d="M339.8,371.2c-2.7-0.4-6.2-0.9-9.7-1.5c-0.9-0.2-2.5-0.4-1.2-1.9c3.2-3.7,6.5-7.4,11.2-9.2
			c2.8-1.1,5.6-1.3,8,0.9c1.9,1.7,2.6,4,1.9,6.5c-0.9,3.4-3.6,4.4-6.7,4.9C342.4,371.1,341.5,371.1,339.8,371.2z"/>
		<path class="st0" d="M442.9,119.6c-3.1,0-4.8-1.8-5.8-4.4c-1.1-2.8-0.2-5.3,2.1-7c4.6-3.3,10.1-4,15.5-4.6
			c1.1-0.1,1.8,0.6,1.3,1.7c-2.2,5.1-4.4,10.3-9.5,13.4C445.4,119.4,444.2,119.6,442.9,119.6z"/>
		<path class="st0" d="M420.6,327.9c0-2.7,0.3-4.5,1.3-6.1c1.5-2.6,4.8-3.7,7.7-2.6c3,1.1,4.6,3.8,4.1,7c-0.9,5.3-3.9,9.6-6.8,14
			c-0.9,1.3-1.7,0.9-2.2-0.3C422.6,335.8,420.8,331.7,420.6,327.9z"/>
		<path class="st0" d="M368.5,377.5c-3.4-0.5-6.7-1-10.1-1.6c-1.4-0.2-2.2-1-1-2.3c3.7-3.9,7.1-8,12.7-9.3c4.2-1,7.7,1.3,8.3,5.3
			c0.4,3-0.8,5.3-3.6,6.6C372.8,377.2,370.7,377.4,368.5,377.5z"/>
		<path class="st0" d="M448.8,345.6c-2.5,2.9-5.8,3.8-9.5,3.7c-3.4-0.1-6.8-0.6-10.1-1.3c-2-0.4-2.3-1.2-0.9-2.7
			c2.6-2.7,5.2-5.5,8.5-7.3c3-1.6,6.1-2.9,9.3-0.8C449.2,339.2,449.2,342.4,448.8,345.6L448.8,345.6z"/>
		<path class="st0" d="M489.1,210.1c4.3,0.5,8.6,1.3,12.8,2.8c1.3,0.5,1.9,1.3,0.6,2.5c-3.6,3.2-7.2,6.3-12,7.5
			c-2.9,0.7-5.5,0.5-7.5-1.8c-1.8-2-2.2-4.5-1-7C483.3,211.1,486,210.4,489.1,210.1z"/>
		<path class="st0" d="M327.4,316.5c-1.1-0.2-2.8,0.9-3.6-0.6c-0.7-1.3,0.7-2.5,1.4-3.6c2-3.4,4-6.9,7.5-9.1c2.6-1.6,5.3-2.3,8-0.6
			c2.2,1.4,3.1,3.5,2.9,6.1c-0.3,3.3-2.6,5-5.4,5.9C334.8,315.9,331.2,316.5,327.4,316.5z"/>
		<path class="st0" d="M479,173.9c2.1-0.1,3.2,0.1,2.4,2c-2,4.2-3.7,8.6-7.4,11.7c-2.5,2-5.1,3.1-8.2,1.6c-2.4-1.1-3.4-3.3-3.5-5.9
			c-0.1-3.3,2-5.1,4.8-6.4C471.1,175.1,475.3,174.5,479,173.9z"/>
		<path class="st0" d="M424,101.5c0.4-3,0.9-6.3,1.4-9.6c0.2-1.3,0.9-2.3,2.3-1.1c3.5,3.3,7.3,6.3,9,11c1.7,4.8,0.3,8.5-3.9,9.7
			c-4.4,1.3-7.5-1.1-8.4-6.4C424.2,104.1,424.1,102.9,424,101.5z"/>
		<path class="st0" d="M51.7,350.9c4.6,0.6,9.1,0.6,12.9,3.3c3.6,2.5,4.5,6.3,2.2,9.4c-2.4,3.3-6.2,3.8-9.6,1.1
			c-3.9-3.1-6.7-7.2-8.6-11.7C47.1,349.3,50.9,351.9,51.7,350.9z"/>
		<path class="st0" d="M345.9,336.4c-1.5-0.3-3.1,0.5-3.8-0.7c-0.7-1.2,0.6-2.3,1.1-3.4c1.6-3.1,3.6-6,6.3-8.4
			c1.7-1.5,3.5-2.4,5.8-2.5c3.4-0.2,5.3,1.6,6.3,4.6c1,3.2-0.2,5.6-2.9,7.2C354.7,335.7,350,335.7,345.9,336.4z"/>
		<path class="st0" d="M428.9,367.2c-3.1,0-6.1-0.5-9.1-1.1c-1.9-0.4-2.7-1.1-0.9-2.8c3.3-3.3,6.3-6.9,11-8.5c4.4-1.5,8-0.1,9.3,3.7
			c1.2,3.7-0.4,6.8-4.1,8.2C433,367.3,431,367.2,428.9,367.2z"/>
		<path class="st0" d="M200.3,263.7c0.6-4.5,2.9-8.9,5.6-13.2c0.7-1.2,1.6-1.2,2.3,0.1c2,3.8,4.2,7.6,4.7,12c0.4,4-1.3,7.1-4.3,8
			C204.2,272.1,200.3,269.1,200.3,263.7z"/>
		<path class="st0" d="M382.3,384.5c0.3-2.5,1.6-4.4,4-5.4c2.5-1,4.8-0.3,6.6,1.5c3.3,3.6,4.9,8.1,6.5,12.7c0.5,1.4-0.2,2.1-1.5,1.8
			c-4.5-1.1-9.2-1.9-12.8-5.1C383.4,388.5,382.3,386.8,382.3,384.5z"/>
		<path class="st0" d="M149.8,101.3c0-1.2,0-1.8,0-2.3c0.1-1.1-0.1-2.5,1-3.1c1.1-0.5,1.9,0.5,2.7,1.1c3.3,2.4,6.8,4.7,8.5,8.6
			c1.7,3.8,0.5,7.2-2.9,8.5c-3.4,1.4-6.7-0.2-8.1-4.1C150.1,107.1,150.2,103.8,149.8,101.3z"/>
		<path class="st0" d="M463.5,166.5c-3.3,0-5.7-0.6-7.9-1.9c-2.8-1.6-3.7-4.7-2.3-7.7c1.2-2.6,4-3.9,6.9-3c5,1.7,8,5.8,11.3,9.6
			c1.1,1.2-0.1,1.9-1.2,2C467.7,165.9,465.3,166.2,463.5,166.5z"/>
		<path class="st0" d="M430.4,230.8c-0.1,2.8-0.5,5.2-1.7,7.5c-1.8,3.2-4.5,4.2-7.7,2.8c-3-1.4-4.3-4.4-2.8-7.7
			c2-4.4,5.6-7.3,9.2-10.3c1.4-1.1,2.1-0.1,2.3,1.2C430,226.6,430.2,228.8,430.4,230.8z"/>
		<path class="st0" d="M372.8,182.2c-0.1,2.8-1.6,4.6-4,5.5c-2.4,0.8-4.8,0.2-6.4-1.9c-3.1-4-3.6-9-4.3-13.8
			c-0.1-0.7,0.2-1.2,1.1-1.3c4.2-0.4,13.1,6.8,13.6,11C372.8,181.8,372.8,182.1,372.8,182.2z"/>
		<path class="st0" d="M280,121c0,3.8-2.1,6.2-6.1,6c-3.9-0.2-5.9-2.8-5.3-7.5c0.6-4.2,2.6-8,4.7-11.6c0.7-1.2,1.5-1.4,2.2-0.1
			C277.6,111.8,280.1,115.6,280,121z"/>
		<path class="st0" d="M444.5,305.8c2.9,0,5.6,0.5,8.4,1.1c2.1,0.5,2.1,1.4,0.8,2.8c-2.4,2.5-4.9,5.1-8.1,6.7
			c-2.8,1.4-5.6,2.1-8.3-0.2c-2-1.8-2.4-4.2-1.5-6.5c1.2-3.1,4-3.8,7-3.8C443.4,305.8,443.9,305.8,444.5,305.8z"/>
		<path class="st0" d="M170.1,117.4c-3.9,0-6.3-2.7-5.8-6.8c0.5-4,2-7.7,3.6-11.3c0.6-1.3,1.3-2,2.4-0.5c2.4,3.5,4.7,7,5.3,11.3
			C176.3,114.4,173.9,117.5,170.1,117.4z"/>
		<path class="st0" d="M339.5,225c-0.5,1-1,1.9-1.5,2.9c-5.8,2.2-8.3,1.3-10.6-4.5c-1.1-2.8-1.7-5.9-2.4-8.8
			c-0.2-0.9-0.4-2.1,1.2-2.2C331.5,212.3,339.2,219.6,339.5,225z"/>
		<path class="st0" d="M193.9,39.1c-0.3,3.8-0.8,7.4-2.7,10.7c-1.3,2.2-3.1,3.7-5.8,3.5c-2.3-0.1-4-1.4-5-3.6
			c-1.1-2.6,0-4.7,1.7-6.5c2.3-2.6,5.3-4.3,8.3-6c1-0.5,2-1.7,3-1.1C194.5,36.7,193.6,38.2,193.9,39.1z"/>
		<path class="st0" d="M69.8,132.2c0,3.5-2.4,6-5.7,6c-3.3,0.1-5.7-2.3-5.7-5.9c0-4.5,1.9-8.4,3.6-12.4c0.5-1.1,1.4-1.7,2.3-0.4
			C67.1,123.3,69.6,127.3,69.8,132.2z"/>
		<path class="st0" d="M217.3,23.7c0-0.8-0.1-1.6,0-2.4c0.2-1.4-0.7-3.4,0.9-4c1.5-0.6,2.6,1.1,3.7,2c2.8,2.2,5.5,4.4,6.8,7.9
			c1.4,3.7,0.1,6.9-3.3,8c-3.3,1.1-6.1-0.5-7.4-4.1C217.2,28.7,217.3,26.2,217.3,23.7z"/>
		<path class="st0" d="M345.9,233.5c0.2-3.2,1.6-6.9,3.2-10.6c0.5-1.3,1.4-1.6,2.2-0.3c2.3,3.4,4.8,6.7,5.5,10.9
			c0.5,2.6,0.2,5.1-1.9,6.8c-1.8,1.5-4.1,1.5-6.2,0.5C346.1,239.5,345.9,237,345.9,233.5z"/>
		<path class="st0" d="M55.5,295.9c3.1,0.3,5.9,0.5,7.3,3.1c1.1,2,0.9,4.2-0.4,6.2c-1.3,2.1-3.4,2.7-5.7,2.2
			c-4.6-0.9-8.2-3.8-11.7-6.6c-1.2-0.9-0.7-1.8,0.5-2.3C48.8,297.1,52.3,296,55.5,295.9z"/>
		<path class="st0" d="M379.2,223.4c0,5.3-1.8,7.9-4.9,8.3c-3.8,0.4-6.5-1.9-6.3-5.8c0.2-5,2.9-9,5.4-13.1c0.7-1.2,1.5-0.7,2.1,0.3
			C377.2,216.7,379,220.4,379.2,223.4z"/>
		<path class="st0" d="M145.2,153.5c0,4.8-1.6,7.9-4.3,8.8c-2.4,0.7-4.5,0.1-6.2-1.7c-2-2.3-1.8-5.3,0.7-9.1
			c1.6-2.4,3.4-4.6,5.2-6.8c1.1-1.4,2.2-1.7,2.8,0.5C144.3,148,145,151,145.2,153.5z"/>
		<path class="st0" d="M152,172.6c-1.2-0.7-2.4-1.5-3.6-2.2c-2.2-6,0.4-11.1,2.8-16.3c0.5-1.2,1.4-1.6,2.3-0.3
			c2.3,3.4,4.7,6.7,5.3,11C159.3,169.4,157.5,171.5,152,172.6z"/>
		<path class="st0" d="M80.3,199c0,5.6-2.3,8.1-5.9,8c-3.3-0.1-5.6-2.7-5.4-6.5c0.3-4.3,2-8.1,3.7-11.9c0.4-0.9,1.2-1.7,2-0.5
			C77.4,191.9,80.2,195.6,80.3,199z"/>
		<path class="st0" d="M136.2,128.8c-3.4-3.5-3.7-5.5-1.4-9.7c1.6-3,3.7-5.7,6.2-8.1c1.1-1.1,1.9-1.2,2.4,0.5c0.9,3.3,2,6.5,1.9,10
			C144.9,127.7,142.2,129.8,136.2,128.8L136.2,128.8z"/>
		<path class="st0" d="M122,166.4c0.1,5.9-2.1,8.2-6,8c-3.4-0.2-5.8-3.1-5.2-7c0.5-3.9,1.9-7.5,3.5-11c0.6-1.2,1.4-2,2.5-0.5
			C119.3,159.5,121.8,163.2,122,166.4z"/>
		<path class="st0" d="M159.3,134.5c0.4-3.7,1.2-7.4,2.6-10.9c0.5-1.3,1.3-2.1,2.4-0.7c2.7,3.3,5.7,6.5,6.3,11.1
			c0.6,4.4-1.3,7-5.1,7.3C161.7,141.6,159.3,138.9,159.3,134.5z"/>
		<path class="st0" d="M56.1,284.3c-0.9,0-1.8,0-2.7,0c-1.4-0.1-1.8-0.8-1.1-2c2.1-3.6,4.3-7.3,8.1-9.5c3.6-2.1,7.2-1.3,8.8,1.9
			c1.7,3.5,0.2,6.8-3.9,8.2C62.2,283.9,59.2,284.2,56.1,284.3z"/>
		<path class="st0" d="M67.9,207.9c0,3.6-2.8,6.2-6.6,5.7c-4.3-0.6-8-2.6-11.6-4.8c-1.4-0.8-1.3-1.7,0.1-2.5
			c3.5-2.1,7.2-3.9,11.4-4.1C65.3,202,68,204.4,67.9,207.9z"/>
		<path class="st0" d="M53.2,177.8c0.3-3.5,1.8-7.4,3.7-11.2c0.5-1,1.3-1.5,2.1-0.3c2.4,3.7,5.1,7.3,5.5,12c0.3,3.9-2,6.7-5.5,6.8
			C55.4,185.2,53.1,182.6,53.2,177.8z"/>
		<path class="st0" d="M31.6,271.6c4.7,0,6.8,2,6.9,5.4c0.1,3.4-2.1,5.8-5.7,5.8c-4.5,0.1-8.6-1.8-12.7-3.5
			c-1.2-0.5-1.1-1.4-0.1-2.1C23.7,274.5,27.6,271.8,31.6,271.6z"/>
		<path class="st0" d="M59.3,253.5c-1.4-0.2-2.9,0.5-3.6-0.8c-0.7-1.3,0.5-2.3,1.2-3.3c2-3.1,3.9-6.1,7.4-7.8c3.7-1.7,7-0.8,8.3,2.4
			c1.4,3.3,0,6.3-3.8,7.8C65.7,253.1,62.4,252.9,59.3,253.5z"/>
		<path class="st0" d="M49.3,241.2c-1,0-1.8,0-2.6,0c-1.7,0-2.5-0.7-1.4-2.3c2-3.1,3.9-6.4,7.1-8.6c2.3-1.5,4.6-2.6,7.3-1.1
			c2.2,1.3,3.1,3.4,2.8,5.8c-0.4,3.2-2.8,4.5-5.6,5.2C54.4,240.9,51.8,241.4,49.3,241.2z"/>
		<path class="st0" d="M273.1,54.8c-0.6,0.6-1.2,1.2-1.8,1.8c-6.2,1.5-9-0.6-9.3-6.9c-0.1-3.2,0.4-6.3,1.1-9.4
			c0.3-1.2,0.8-1.8,2.1-0.9C270.6,42.5,273.9,49.1,273.1,54.8z"/>
		<path class="st0" d="M200,178.6c0.1,2.3-1.1,3.9-2.9,5c-3.5,2.1-7.4,2.8-11.3,3.5c-1.4,0.2-2.4-0.3-1.8-1.9
			c1.5-3.9,3.1-7.8,6.6-10.5c1.9-1.4,4-2.2,6.3-1C198.9,174.7,199.9,176.4,200,178.6z"/>
		<path class="st0" d="M344.8,251.3c5.1-0.5,12.8,4.2,14.7,9c0.6,1.4-0.1,1.9-1.3,2c-3.1,0.4-6.2,1-9.4,0.3
			C341.7,261.1,340.1,256.7,344.8,251.3L344.8,251.3z"/>
		<path class="st0" d="M330.9,345.1c0-1.4,0-2.7,0.7-4c1.3-2.5,3.3-3.4,5.9-2.9c2.7,0.5,4.3,2.2,4.2,5c-0.1,5.1-2.9,9-5.6,12.9
			c-0.9,1.4-1.8,0.4-2.2-0.6C332.4,352.2,330.7,348.9,330.9,345.1z"/>
		<path class="st0" d="M231.4,126c2.4,0.4,4.9,0.7,7.5,1.2c1.4,0.2,2.2,0.9,1,2.3c-2.6,2.9-5.1,5.8-8.9,7.2
			c-2.3,0.9-4.7,1.2-6.7-0.7c-1.6-1.5-2.2-3.4-1.6-5.6c0.8-2.6,2.9-3.6,5.4-4C229.1,126.2,230.1,126.1,231.4,126z"/>
		<path class="st0" d="M276,70.9c-1.1-0.2-2.5,0.5-3.1-0.7c-0.6-1.1,0.5-2.1,1-3.1c1.4-2.6,2.9-5.2,5.3-7c2.2-1.6,4.5-2.7,7.3-1.3
			c2,1,2.9,2.9,2.8,5.1c-0.1,3-2.3,4.6-4.9,5.5C281.7,70.2,278.9,70.7,276,70.9z"/>
		<path class="st0" d="M221.1,61.4c-0.1,2.8-0.4,5-1.5,7.1c-1.4,2.7-4.3,3.7-7,2.6c-2.9-1.2-4.1-4-2.8-7c1.7-4,4.8-6.9,8.1-9.5
			c1.3-1.1,2.1-0.5,2.3,1C220.7,57.6,220.9,59.8,221.1,61.4z"/>
		<path class="st0" d="M218.4,109.3c-0.5,3.6-1,7.2-3.1,10.3c-2.3,3.3-5.7,4-8.5,1.7c-2.5-2.1-2.6-5.7,0-8.4c2.6-2.8,6-4.5,9.4-6
			C218.9,105.8,218.3,108,218.4,109.3z"/>
		<path class="st0" d="M210.1,93.5c2.1,0.3,4.3,0.6,6.4,0.9c1.3,0.2,1.9,1,0.9,2.1c-2.6,3-5.2,6-9.1,7.4c-2.1,0.7-4.3,1-6.2-0.5
			c-1.8-1.3-2.4-3.3-2.1-5.4c0.3-2.1,1.7-3.4,3.7-4C205.8,93.5,207.9,93.2,210.1,93.5z"/>
		<path class="st0" d="M210.9,51.5c0.1,2.4,0,4.8-1.1,7c-1.5,2.9-3.9,3.9-6.8,2.8c-2.9-1.1-4.3-3.5-3.3-6.6
			c1.5-4.6,5.1-7.7,8.8-10.5c1.2-0.9,1.5,0.2,1.7,1.2C210.8,47.4,211,49.5,210.9,51.5z"/>
		<path class="st0" d="M300.6,52.1c-2.5,0-4.7-2.1-4.6-5.7c0.1-3.5,2.8-5.5,6.6-4.9c3.8,0.5,7.1,2.3,10.5,4c1.2,0.6,1.5,1.4,0.2,2.2
			C309.8,49.8,306.2,51.9,300.6,52.1z"/>
		<path class="st0" d="M60.2,379.4c-1.2-0.3-2.8,0.6-3.5-0.8c-0.7-1.3,0.6-2.3,1.3-3.3c1.9-2.8,3.7-5.8,7.1-7.2
			c3.3-1.4,6-0.6,7.5,2.4c1.4,2.9,0.2,5.7-3.1,7.2C66.5,379,63.3,379.1,60.2,379.4z"/>
		<path class="st0" d="M92.2,314.9c2.5,0.3,4.2,1.5,4.9,3.8c0.8,2.8-0.3,5.1-2.6,6.5c-3.1,1.9-6.6,3.1-10.2,3.7
			c-0.9,0.2-1.8,0.4-1.9-1c-0.3-3.4,4.7-11.4,7.9-12.5C91,315.2,91.7,315,92.2,314.9z"/>
		<path class="st0" d="M226.9,188.2c0.1-3.1,1.5-6.4,2.9-9.8c0.6-1.5,1.5-1.7,2.5-0.3c2.1,3.1,4.4,6.1,5,9.9c0.4,2.4,0,4.6-2,6.1
			c-1.7,1.4-3.7,1.5-5.8,0.5C227.2,193.4,226.8,191.2,226.9,188.2z"/>
		<path class="st0" d="M85.1,359.7c0,1.5,0.2,2.8-1.7,2.1c-3.7-1.4-7.5-2.9-10-6.2c-2.4-3.1-2-6.4,0.9-8.3c2.8-1.9,6.1-0.8,8,2.6
			C83.9,353,84.6,356.5,85.1,359.7z"/>
		<path class="st0" d="M110.3,335.7c-1.4-0.2-3.4,0.7-4.1-0.6c-0.9-1.5,0.9-2.9,1.7-4.1c1.7-2.7,3.6-5.2,6.7-6.5
			c3.2-1.4,6-0.4,7.4,2.7c1.2,2.7,0.1,5.6-3,7C116.3,335.3,113.3,335.5,110.3,335.7z"/>
		<path class="st0" d="M83.8,380.5c0.1-2.7,0.4-5.3,1.9-7.6c1.5-2.2,3.5-3.2,6.1-2.2c2.8,1,4,3.1,3.4,5.9c-1.1,5.1-5.4,7.7-9.1,10.7
			c-0.9,0.7-1.4-0.1-1.6-1C84.3,384.3,84.1,382.4,83.8,380.5z"/>
		<path class="st0" d="M112.8,308.1c2.4,0.2,4,1.3,5,3.3c1.1,2.1,0.6,4-0.9,5.6c-3.3,3.3-7.6,4.2-12,5.1c-0.9,0.2-1.5-0.2-1.6-1.2
			c-0.3-3.5,4.6-11.2,8-12.4C111.8,308.3,112.4,308.2,112.8,308.1z"/>
		<path class="st0" d="M398.2,343.7c-2.7-0.1-4.8-0.4-6.5-1.6c-2.4-1.6-3.2-3.8-1.9-6.5c1.2-2.6,3.3-3.7,6.2-2.7
			c4,1.3,6.9,4.3,9.8,7.2c1,1.1,0.5,1.9-0.8,2.2C402.5,342.9,400,343.3,398.2,343.7z"/>
		<path class="st0" d="M71.2,321.3c-2.6-0.1-4.9-0.5-5.9-2.9c-0.9-2-0.7-4.1,0.7-5.8c1.7-2,3.9-2,6.2-1.4c3.2,0.9,6.1,2.4,8.9,4.1
			c1.2,0.7,1.7,1.6,0.1,2.5C78,319.5,74.7,321,71.2,321.3z"/>
		<path class="st0" d="M68.5,339c-0.5-1.2-1-2.4-1.5-3.7c1.7-5.3,4-6.5,9.2-4.6c2.6,1,5.1,2.5,7.6,3.8c1.1,0.6,1.6,1.5,0.2,2.2
			C79.1,339.3,74.2,342.2,68.5,339z"/>
		<path class="st0" d="M149.5,69.5c-3.2-0.3-6.6-1.8-10-3.5c-1.2-0.6-1.1-1.4-0.1-2c3.3-2.2,6.6-4.5,10.8-4.5c3.5,0,5.7,1.9,5.8,4.9
			C156.1,67.6,153.9,69.6,149.5,69.5z"/>
		<path class="st0" d="M87.6,143.8c-0.1,2-1.2,3.6-3.3,4.5c-2.2,0.9-4.1,0.4-5.5-1.4c-2.7-3.6-2.8-8-3-12.3c0-0.8,0.4-1.2,1.3-1.2
			C80.3,133.3,87.5,140.2,87.6,143.8z"/>
		<path class="st0" d="M442.6,166.5c0.3-0.3,0.5-0.5,0.8-0.8c2.9-1.9,5.6-1.3,8.2,0.7c0.8,0.6,1.7,1.2,2.3,2
			c1.5,1.7,4.6,3.3,3.7,5.5c-0.8,1.9-4.1,1-6.3,1.3c-1.4,0.2-3-0.2-4.4-0.5C442.9,173.6,441.7,171.3,442.6,166.5z"/>
		<path class="st0" d="M377,101.6c-0.4,2.6-0.5,4.9-2.4,6.5c-1.8,1.5-3.8,1.4-5.7,0.4c-2.2-1.2-2.8-3.3-2.1-5.6
			c1.2-3.8,3.8-6.7,6.6-9.4c1.4-1.3,2-0.3,2.3,1C376.2,97,376.6,99.4,377,101.6z"/>
		<path class="st0" d="M264.4,75.3c0.2-1.7-0.9-4.4,0.8-5.2c1.7-0.8,3.2,1.6,4.7,2.7c1.8,1.4,3.3,3.1,4.1,5.3
			c1.2,3.1,0.1,5.8-2.6,6.8c-2.7,1-5.3-0.3-6.4-3.4C264.3,79.6,264.6,77.5,264.4,75.3z"/>
		<path class="st0" d="M402.2,158.3c0.2-0.9,0.7-1.6,1.5-2.1c4.6-1.9,8.7,0.2,12.8,2c1.5,0.7,1.4,1.6,0.1,2.5c-2,1.4-4,2.7-6.3,3.4
			C405.1,165.6,402.4,163.7,402.2,158.3z"/>
		<path class="st0" d="M101.8,341.9c2.1,0,4.1,0,6,0.9c2.4,1.2,3.6,3.1,2.6,5.8c-1.1,2.7-3.3,3.5-5.8,2.5c-3.4-1.3-5.8-3.9-7.9-6.8
			c-0.9-1.2-0.1-1.9,1.1-2.1C99.1,342.1,100.4,342,101.8,341.9z"/>
		<path class="st0" d="M283.4,45c-0.1,2.2-1.3,3.9-3.8,4.3c-2.3,0.4-4.1-0.6-4.9-2.8c-1.2-3.6-0.4-7.2,0.3-10.8
			c0.2-1,0.9-1.1,1.8-0.7C279.5,36.4,283.4,42,283.4,45z"/>
		<path class="st0" d="M179.5,47.5c-0.1,1.9-1.1,3.2-2.8,3.9c-1.8,0.7-3.4,0-4.5-1.4c-2.1-2.6-3-5.8-3.6-9c-0.1-0.7,0-1.3,0.9-1.5
			C172.7,38.6,179.6,44.1,179.5,47.5z"/>
		<path class="st0" d="M239.5,26.8c1,0.1,2.2-0.5,2.8,0.7c0.5,0.9-0.2,1.7-0.7,2.5c-1.4,2.3-2.8,4.7-5.3,6c-2.4,1.2-4.5,0.8-5.8-1.6
			c-1.4-2.4-0.4-4.4,1.9-5.7C234.6,27.4,237.1,27.1,239.5,26.8z"/>
		<path class="st0" d="M251.2,74.5c-0.2,1.8-0.4,3.5-1.3,5c-1.2,2-2.9,2.9-5.2,1.8c-2.3-1.1-3.2-3-2.2-5.3c1.2-3,3.7-5.2,6.1-7.2
			c1.2-1,1.8-0.3,2,1C250.8,71.4,251,73,251.2,74.5z"/>
		<path class="st0" d="M177.8,87.7c-0.1,1.4-0.7,2.4-1.6,3.1c-1.1,0.8-2.2,1.6-3.4,2.1c-2,0.8-4.8,3.1-6.1,1.3
			c-1.2-1.7,0.6-4.7,1.9-6.9c1.3-2.2,2.9-4.3,5.9-3.7C176.5,84.1,177.6,85.7,177.8,87.7z"/>
		<path class="st0" d="M229.2,63.2c-0.4-4.7,4.8-9.8,9.9-9.6c1.4,0.1,1.4,1,1.1,1.9c-0.6,1.8-1.1,3.7-1.9,5.4
			C236,65.2,233.3,65.8,229.2,63.2L229.2,63.2z"/>
		<path class="st0" d="M286.9,83.5c0,2.4-0.5,4.4-1.4,6.2c-0.9,1.7-2.1,3-4.2,3c-1.7-0.1-3-1-3.7-2.5c-0.9-2-0.1-3.6,1.2-5
			c1.4-1.4,3-2.5,4.5-3.6c0.9-0.6,1.9-1.7,3-1C287.3,81.3,286.7,82.7,286.9,83.5z"/>
		<path class="st0" d="M441.4,130.9c-2.3-0.1-4.2-0.3-5.8-1.5c-1.9-1.3-2.6-3.1-1.4-5.3c1.2-2.1,2.9-2.7,5.2-1.7
			c2.9,1.3,4.8,3.7,6.7,6c0.8,1,0.6,1.7-0.7,1.9C444,130.6,442.6,130.8,441.4,130.9z"/>
		<path class="st0" d="M299.7,68.4c-0.4,1.2,0.4,3-1,3.7c-1.2,0.6-2.2-0.8-3.2-1.5c-1.9-1.4-3.6-3.1-4.4-5.4
			c-0.8-2.5,0.1-4.3,2.4-5.2c2.3-0.9,4,0.1,5,2.2C299.4,64,299.4,66.2,299.7,68.4z"/>
		<path class="st0" d="M458.2,324.3c1.9,0.5,4.2-0.2,4.9,1.3c0.7,1.6-1.5,2.8-2.5,4c-1.2,1.4-2.6,2.6-4.4,3.1
			c-2.5,0.7-4.6,0.2-5.4-2.6c-0.7-2.6,0.4-4.5,3-5.2C455.3,324.6,456.8,324.5,458.2,324.3z"/>
		<path class="st0" d="M327.2,48.2c-0.2,2.3-0.6,4.2-2.6,5.1c-1.6,0.8-3.2,0.4-4.4-0.7c-1.7-1.5-1.6-3.4-0.8-5.3
			c0.4-1,0.8-2.1,1.5-3c1-1.4,1.5-4.1,3.4-3.7c1.7,0.3,1.7,2.9,2.3,4.6C326.9,46.2,327,47.4,327.2,48.2z"/>
		<path class="st0" d="M476.7,231.9c0.1,2.1-0.6,2.9-2.6,1.5c-2.1-1.5-4.5-2.7-5.8-5.1c-1.4-2.6-0.8-5.1,1.4-6.2
			c2.4-1.2,4.8-0.1,5.9,2.8C476.5,227.1,476.3,229.6,476.7,231.9z"/>
		<path class="st0" d="M326.3,79.6c3.7-3.3,6-3,10,1.2c1.1,1.1,3.1,2.2,2.5,3.7c-0.6,1.7-2.9,1.2-4.6,1.4c-2.6,0.3-4.9-0.8-7.3-1.4
			C325.6,83,326.3,81.3,326.3,79.6z"/>
		<path class="st0" d="M458.5,279.4c-0.1,1,0.3,2.1-0.5,2.7c-1,0.7-1.9-0.3-2.7-0.8c-2.2-1.4-4.4-2.8-5.5-5.3c-1-2.5-0.5-4.5,2-5.6
			c2.4-1,4.2,0.1,5.3,2.3C458.2,274.7,458.4,277.1,458.5,279.4z"/>
		<path class="st0" d="M478.8,210.8c-0.2,2-0.5,4-2.5,4.9c-1.6,0.7-3.2,0.5-4.4-0.7c-1.6-1.5-1.5-3.4-0.8-5.4c0.3-0.7,0.5-1.6,1-2.2
			c1.3-1.6,1.6-5,3.8-4.6c1.9,0.3,2,3.5,2.6,5.6C478.6,209.3,478.7,210.1,478.8,210.8z"/>
		<path class="st0" d="M386.4,348.9c2.2,0,3.4,1.5,4.4,3.2c0.4,0.7,0.8,1.4,1,2.1c0.4,1.8,2.2,3.5,0.9,5.4c-0.7,1.1-7.6-1.7-9.1-3.6
			c-1.4-1.7-2-3.6-0.5-5.5C384,349.5,385.1,348.9,386.4,348.9z"/>
		<path class="st0" d="M369.5,141.2c-0.6-0.3-1.1-0.6-1.7-0.9c-2-3.8-1.6-5.8,2-7.9c2.1-1.2,4.9-3.9,6.5-2.4c1.8,1.8-0.1,5-1.2,7.5
			C374,140,372.2,141.3,369.5,141.2z"/>
		<path class="st0" d="M452.1,352.3c2.2,0.2,3.5,2,4.6,4.1c1,2,3.2,4.6,1.8,6.1c-1.6,1.6-4.4-0.4-6.6-1.2c-2-0.7-3.6-2-4.1-4.2
			C447.1,354.6,449.1,352.3,452.1,352.3z"/>
		<path class="st0" d="M458.1,348c-1.4,0-2.7,0.1-3.9-0.8c-1.7-1.2-2.3-2.8-1.5-4.7c0.7-2,2.2-2.8,4.3-2.5c3.3,0.5,5.8,2.5,8.2,4.6
			c1.1,1,0.6,1.8-0.7,2.2C462.4,347.4,460.3,348.1,458.1,348z"/>
		<path class="st0" d="M85.2,199.3c0.1-2.6,1-5.1,2.1-7.5c0.6-1.4,1.5-1.6,2.5-0.3c1.6,2.2,3,4.5,3.3,7.3c0.3,2.8-1.4,4.9-3.8,5.1
			C86.8,204.1,85.1,202.3,85.2,199.3z"/>
		<path class="st0" d="M464.7,213.7c0,2.6-0.3,4.5-2.4,5.5c-1.4,0.7-2.9,0.5-4.2-0.5c-1.8-1.4-1.8-3.5-1.2-5.3
			c0.9-2.7,2.1-7,4.7-6.7C464.3,207,464.3,211.4,464.7,213.7z"/>
		<path class="st0" d="M285.8,40.1c0-0.2,0.1-1.1,0.4-2c0.7-2.1,1-5.5,3-5.7c2.1-0.2,2.9,3,3.8,5c1.1,2.5,1.5,5.1-0.7,7.2
			c-1.2,1.2-2.9,1.2-4.4,0.4C286,44.3,285.7,42.6,285.8,40.1z"/>
		<path class="st0" d="M458.9,266.5c0.1-1.4,1-2.6,2.5-3.4c2.5-1.3,5.1-1.7,7.9-1.8c1,0,2.1,0.1,1.5,1.4c-1.4,3.1-2.8,6.3-6.2,7.8
			C461.7,271.8,458.8,269.9,458.9,266.5z"/>
		<path class="st0" d="M300.5,96.8c-0.2,1,0.7,2.8-0.7,3.5c-1.4,0.7-2.4-0.9-3.5-1.6c-1.9-1.3-3.4-3-4.1-5.2
			c-0.7-2.4-0.1-4.3,2.4-5.2c2.3-0.8,4,0.2,5,2.3C300.5,92.4,300.6,94.5,300.5,96.8z"/>
		<path class="st0" d="M364,242.3c4-0.1,5.1,2.8,5.8,5.9c0.4,1.9,1.8,4.7,0.3,5.7c-1.8,1.2-3.8-1.1-5.6-2.2
			c-0.9-0.6-1.8-1.4-2.4-2.3c-1.9-2.7-1.3-4.8,1.8-7C363.8,242.4,364,242.3,364,242.3z"/>
		<path class="st0" d="M460.4,233.9c0,1,0.2,1.9-0.5,2.4c-0.9,0.7-1.7-0.1-2.5-0.6c-2.1-1.3-4.3-2.7-5.5-5c-1.1-2.2-1.3-4.4,1.2-5.9
			c2.2-1.3,4.6-0.3,5.9,2.2C460.1,229.4,460,231.8,460.4,233.9z"/>
		<path class="st0" d="M247.9,192.6c-0.8,2.8-1.5,5.7-4,7.7c-1.9,1.5-3.8,1.5-5.5-0.3c-1.7-1.8-1.5-3.8,0.2-5.5
			c2.2-2.2,5-3.1,7.9-3.8C248.3,190.2,247.9,191.6,247.9,192.6z"/>
		<path class="st0" d="M249,248.3c0.3-2.8,0.6-5.5,3.6-6.6c1.7-0.6,3.3,0.1,4.2,1.6c1.7,2.8,0.1,5-1.6,7.1c-0.1,0.1-0.1,0.2-0.2,0.3
			c-1.5,1.2-2.6,4-4.3,3.3C248.5,253.2,249.7,250.1,249,248.3z"/>
		<path class="st0" d="M80.3,125.8c-0.3,0-0.7-0.1-1-0.1c-3.2-0.5-7.9-3.2-7.5-4.4c0.4-1.3,7.2-3.7,9.4-3.3c2.5,0.5,3.9,2,3.6,4.6
			C84.4,125,82.6,125.9,80.3,125.8z"/>
		<path class="st0" d="M243.2,235.6c2.1,0.3,4,0.5,5.2,2.1c1.1,1.5,1,3,0.1,4.5c-1.1,1.6-2.7,2.1-4.5,1.6c-2.8-0.8-5-2.7-7-4.6
			c-1.1-1-0.7-1.9,0.6-2.2C239.4,236.3,241.5,236,243.2,235.6z"/>
		<path class="st0" d="M260.3,165.5c-0.6,2.1-1.2,4.5-2.9,6.5c-1.1,1.4-2.6,2.3-4.5,1.8c-1.6-0.4-2.6-1.4-3-3c-0.5-2,0.6-3.3,2-4.4
			c1.9-1.5,4.1-2.3,6.4-3.1C260,162.9,260.8,163.3,260.3,165.5z"/>
		<path class="st0" d="M195.9,159.1c-3,0.1-4.2-1.4-5-3.2c-1.1-2.3-3.4-5.9-1.8-7c2.3-1.6,5.4,0.9,7.8,2.6c1.6,1.2,2.7,2.8,2,5
			C198.3,158.2,197,159,195.9,159.1z"/>
		<path class="st0" d="M396.1,209.1c-0.2,2.3-1,4.3-3.8,4.3c-2.7,0-3.8-2-3.7-4.4c0.1-2.4,0.9-4.7,1.9-6.9c0.5-1.2,1.3-1.7,2.3-0.4
			C394.4,203.9,395.8,206.2,396.1,209.1z"/>
		<path class="st0" d="M71.3,281.8c0.5-2.5,1.1-4.9,3-6.8c1.7-1.6,3.6-2.1,5.4-0.3c1.8,1.8,1.5,3.7-0.2,5.4c-1.7,1.7-4,2.6-6.2,3.4
			C71.7,284.3,70.9,283.6,71.3,281.8z"/>
		<path class="st0" d="M82.8,271.1c-4.4,0.6-6.8-2.6-9.3-5.3c-0.9-1-0.3-1.6,0.8-2c1.7-0.6,3.4-0.5,5.1-0.5c2.1,0,4.2,0.5,5.2,2.6
			C85.5,268.1,84,269.6,82.8,271.1L82.8,271.1z"/>
		<path class="st0" d="M180.8,70.3c-0.4,4.2-3.6,8.2-6.2,7.8c-2-0.3-3.3-1.6-3.2-3.7c0.1-2.4,5.4-6.2,8.3-6
			C181.2,68.5,180.9,69.4,180.8,70.3z"/>
		<path class="st0" d="M123.4,176.7c0.7-2.2,0.5-5.2,3.1-6.8c0.8-0.5,3.6,4.7,3.7,6.9c0,2.2-0.8,3.9-3.2,4
			C124.6,180.9,123.5,179.3,123.4,176.7z"/>
		<path class="st0" d="M305.6,171.4c-7.2,1.6-11.2-1.8-10.8-9.2c0.2-4.2,1.1-8.3,2.2-12.4c0.6-2,1.3-2.9,3.1-0.9
			c3.1,3.6,6.6,7,8.3,11.6c1.1,2.9,1.3,5.8-0.3,8.5C307.3,169.8,306.4,170.6,305.6,171.4z"/>
		<path class="st0" d="M347,114.2c-0.1,1.7-1.3,3.1-3.4,3.6c-2.1,0.6-3.9-0.3-5-2.1c-1.8-3-1.9-6.5-2.1-9.9
			c-0.1-0.7,0.1-1.3,1.1-1.4C340.6,104.1,347.1,110.5,347,114.2z"/>
		<path class="st0" d="M340.7,89c1.1,0.3,2.4,0.4,3.5,0.9c2.3,1,3.4,2.7,2.6,5.2c-0.9,2.5-3.1,3-5.3,2.2c-2.7-1-4.8-3-6.8-5
			c-1.1-1.2-0.6-2.1,0.9-2.4C337.2,89.5,338.9,89.3,340.7,89z"/>
		<path class="st0" d="M286.7,169.4c-2.1,0-3.4,0-4.6-0.6c-2.3-1.1-3.3-2.8-2.4-5.3c1-2.4,2.9-3,5.3-2.1c2.5,1,4.3,2.9,6.3,4.6
			c1.5,1.3,1.2,2.3-0.8,2.7C289,169,287.4,169.3,286.7,169.4z"/>
	</g>
</g>
</svg>
