<?xml version="1.0" encoding="utf-8"?>
<!-- Generator: Adobe Illustrator 25.0.0, SVG Export Plug-In . SVG Version: 6.00 Build 0)  -->
<svg version="1.1" xmlns="http://www.w3.org/2000/svg" xmlns:xlink="http://www.w3.org/1999/xlink" x="0px" y="0px"
	 viewBox="0 0 500 500" style="enable-background:new 0 0 500 500;" xml:space="preserve">
<style type="text/css">
	.st0{fill:#FFFFFF;}
	.st1{fill:#68C8BF;}
	.st2{fill:#ED534F;}
	.st3{fill:#CED7DB;}
	.st4{fill:#788F9B;}
	.st5{fill:#FEC928;}
	.st6{fill:#FEB200;}
	.st7{fill:#FF98AA;}
	.st8{fill:#EE293D;}
	.st9{fill:#FFDA1A;}
	.st10{fill:#C4C524;}
	.st11{fill:#D2E09F;}
	.st12{fill:#FE293D;}
	.st13{fill:#CCCCCC;}
	.st14{fill:none;stroke:#C4C524;stroke-miterlimit:10;}
	.st15{fill:none;stroke:#C4C524;stroke-width:2;stroke-linecap:round;stroke-miterlimit:10;}
	.st16{fill:none;stroke:#8FA3AD;stroke-linecap:round;stroke-miterlimit:10;}
	.st17{fill:none;stroke:#CED7DB;stroke-linecap:round;stroke-miterlimit:10;}
	.st18{fill:none;stroke:#FE5722;stroke-linecap:round;stroke-miterlimit:10;}
	.st19{fill:none;stroke:#8FA3AD;stroke-width:2;stroke-linecap:round;stroke-miterlimit:10;}
	.st20{fill:none;stroke:#E5ED9A;stroke-width:2;stroke-linecap:round;stroke-miterlimit:10;}
	.st21{fill:none;stroke:#E44747;stroke-width:2;stroke-linecap:round;stroke-miterlimit:10;}
	.st22{fill:none;stroke:#FEC928;stroke-width:2;stroke-linecap:round;stroke-miterlimit:10;}
	.st23{fill:#EBEEF0;}
	.st24{fill:#B1EAF1;}
	.st25{fill:#AFBDC4;}
	.st26{fill:#FECB80;}
	.st27{fill:#FE9700;}
	.st28{fill:#E55100;}
</style>
<g id="Background">
	<rect class="st0" width="500" height="500"/>
</g>
<g id="Objects">
	<polygon class="st1" points="322.6,97.3 335.1,89.5 336.5,83.5 327.4,89 	"/>
	<polygon class="st2" points="326.6,103.4 321.8,106.9 322.6,97.3 327.4,89 	"/>
	<polygon class="st1" points="101.1,93.5 99.7,79.4 95,75.6 95.9,85.8 	"/>
	<polygon class="st2" points="108.1,92.7 109.1,98.2 101.1,93.5 95.9,85.8 	"/>
	<polygon class="st3" points="235.8,47.8 233.7,56.6 244.6,67.7 246.6,59.2 	"/>
	<polygon class="st3" points="235.9,65.5 233.8,74.4 241.2,82 243.2,73.5 	"/>
	<polygon class="st4" points="244.6,67.7 233.8,74.4 235.9,65.5 246.6,59.2 	"/>
	<polygon class="st5" points="209.5,127.8 211,136.1 224.3,141.5 222.9,133.6 	"/>
	<polygon class="st5" points="216.1,143 217.6,151.3 226.7,155 225.3,147.1 	"/>
	<polygon class="st6" points="224.3,141.5 217.6,151.3 216.1,143 222.9,133.6 	"/>
	<polygon class="st6" points="226.7,155 220.8,164.1 219.4,156.7 225.3,147.1 	"/>
	<polygon class="st7" points="173.2,78.3 174.9,82.4 180.4,83.9 178.7,79.9 	"/>
	<polygon class="st8" points="183.2,90.6 181.2,96 179.6,92.3 181.6,86.7 	"/>
	<polygon class="st7" points="176.3,85.6 178,89.7 183.2,90.6 181.6,86.7 	"/>
	<polygon class="st8" points="180.4,83.9 178,89.7 176.3,85.6 178.7,79.9 	"/>
	<polygon class="st7" points="335.6,138 330.3,144.8 319.5,144.7 324.5,138.2 	"/>
	<polygon class="st8" points="310.9,155.6 312,166.6 316.7,160.5 316,149.2 	"/>
	<polygon class="st7" points="326.2,149.8 320.9,156.6 310.9,155.6 316,149.2 	"/>
	<polygon class="st8" points="319.5,144.7 320.9,156.6 326.2,149.8 324.5,138.2 	"/>
	<path class="st8" d="M130,164.4l13-2.8l6.9,10.8l-5.1,2.2c-3.1-0.8-5.2-1.3-8.3-2L130,164.4z"/>
	<polygon class="st9" points="136.5,172.6 142.1,170.5 144.8,174.6 	"/>
	<polygon class="st10" points="273.3,165.4 282.3,166.6 289.5,160.6 283.3,160.1 277.2,162.7 	"/>
	<polygon class="st11" points="277.2,162.7 278.8,158.4 283.3,160.1 	"/>
	<polygon class="st9" points="434.9,87.1 443.7,84.7 448,76.4 442.2,78.4 437.5,83.1 	"/>
	<polygon class="st10" points="437.5,83.1 437.4,78.5 442.2,78.4 	"/>
	<polygon class="st10" points="356.3,183.8 365.3,182.9 370.9,175.3 364.8,176.3 359.5,180.2 	"/>
	<polygon class="st11" points="359.5,180.2 360.1,175.7 364.8,176.3 	"/>
	<path class="st8" d="M314.6,51.8c0,1.6-1.3,3-3,3c-1.6,0-3-1.3-3-3c0-1.6,1.3-3,3-3C313.3,48.9,314.6,50.2,314.6,51.8z"/>
	
		<rect x="455.2" y="166.4" transform="matrix(0.9526 0.3043 -0.3043 0.9526 73.5198 -131.6425)" class="st12" width="7.8" height="7.3"/>
	
		<rect x="468.4" y="131.6" transform="matrix(0.9526 0.3043 -0.3043 0.9526 63.1679 -136.9863)" class="st13" width="5.4" height="5.1"/>
	<rect x="407.3" y="188.3" class="st1" width="3.4" height="3.4"/>
	<path class="st1" d="M266.9,105.5c0,1.3-1,2.3-2.3,2.3c-1.3,0-2.3-1-2.3-2.3c0-1.3,1-2.3,2.3-2.3
		C265.8,103.2,266.9,104.3,266.9,105.5z"/>
	<path class="st10" d="M203.8,32.9c0,1.9-1.5,3.4-3.4,3.4c-1.9,0-3.4-1.5-3.4-3.4c0-1.9,1.5-3.4,3.4-3.4
		C202.3,29.5,203.8,31,203.8,32.9z"/>
	<path class="st9" d="M186.1,61.3c0,1.5-1.2,2.7-2.7,2.7c-1.5,0-2.7-1.2-2.7-2.7s1.2-2.7,2.7-2.7C184.9,58.6,186.1,59.8,186.1,61.3z
		"/>
	<circle class="st9" cx="163.2" cy="133.2" r="2.2"/>
	<path class="st10" d="M122.5,110.8c0,1-0.8,1.9-1.9,1.9c-1,0-1.9-0.8-1.9-1.9s0.8-1.9,1.9-1.9C121.7,108.9,122.5,109.8,122.5,110.8
		z"/>
	<path class="st14" d="M39,177.8c0,1.7-1.3,3-3,3c-1.7,0-3-1.3-3-3c0-1.7,1.3-3,3-3C37.7,174.8,39,176.2,39,177.8z"/>
	<circle class="st8" cx="89.5" cy="165.6" r="1.8"/>
	<rect x="151.8" y="201.4" class="st8" width="4.5" height="3.5"/>
	<path class="st15" d="M350.1,118c2.5,1.6,7.3-2.3,5.1-6c-2.2-3.6,0.9-6.6,4.6-5.2c3.7,1.5,6.7-2.1,4.4-5.8"/>
	<path class="st16" d="M127.6,59.3c2.7,0.3,3.7,2.9,2.7,4.9c-1,2,0.5,4,2.9,4.5c2.4,0.5,3.5,2.4,2.6,4.5"/>
	<path class="st17" d="M385,167.4c-0.4-3.9,3.5-5.3,6.2-3.6c2.7,1.7,5.7-0.1,5.2-3.5c-0.4-3.4,3.6-4.8,6.2-3.5
		c3.4,1.7,7.1,0.4,6.7-3.8"/>
	
		<rect x="76.5" y="136.3" transform="matrix(0.9863 -0.1648 0.1648 0.9863 -21.7745 14.8936)" class="st17" width="4.7" height="4.7"/>
	
		<rect x="102.4" y="186.9" transform="matrix(0.9259 -0.3779 0.3779 0.9259 -63.8506 53.7702)" class="st17" width="5.5" height="5.5"/>
	<path class="st18" d="M29.7,146c3.7-2.8,8.1-0.1,8.5,3.2c0.4,3.3,4.3,4.5,7.1,2.6c2.8-1.9,7.2,0.3,7.7,3.5c0.4,3.1,4.1,3.6,5.7,2.6
		"/>
	
		<rect x="285.2" y="58.9" transform="matrix(0.4828 0.8757 -0.8757 0.4828 202.3779 -220.106)" class="st17" width="4.7" height="4.7"/>
	
		<rect x="245.5" y="100.2" transform="matrix(0.6637 0.748 -0.748 0.6637 160.4503 -151.0317)" class="st17" width="5.5" height="5.5"/>
	<path class="st19" d="M273.3,17.1c4.2,3.2,2.6,9-1,10.5c-3.6,1.5-3.7,6.1-0.8,8.7c2.9,2.6,1.8,8.2-1.5,9.6
		c-3.4,1.4-2.7,5.6-1.1,7.1"/>
	
		<rect x="394.3" y="133.3" transform="matrix(-0.1827 0.9832 -0.9832 -0.1827 602.4263 -229.498)" class="st17" width="4.7" height="4.7"/>
	
		<rect x="311.7" y="196.1" transform="matrix(-0.119 0.9929 -0.9929 -0.119 549.2703 -89.7526)" class="st17" width="5.5" height="5.5"/>
	<polygon class="st1" points="169.5,403.7 160.4,409.3 159.4,413.7 166,409.8 	"/>
	<polygon class="st2" points="166.6,399.2 170.1,396.7 169.5,403.7 166,409.8 	"/>
	<polygon class="st1" points="392.5,408.2 393.6,418.9 397.1,421.7 396.4,414 	"/>
	<polygon class="st2" points="387.3,408.8 386.5,404.6 392.5,408.2 396.4,414 	"/>
	<polygon class="st3" points="257.2,448.7 258.8,441.8 250.4,433.2 248.8,439.8 	"/>
	<polygon class="st3" points="257.2,434.9 258.8,428 253,422.1 251.4,428.6 	"/>
	<polygon class="st4" points="250.4,433.2 258.8,428 257.2,434.9 248.8,439.8 	"/>
	<polygon class="st5" points="282.4,369.1 281.2,362.4 270.4,358 271.5,364.4 	"/>
	<polygon class="st5" points="277,356.9 275.8,350.1 268.4,347.1 269.6,353.5 	"/>
	<polygon class="st6" points="270.4,358 275.8,350.1 277,356.9 271.5,364.4 	"/>
	<polygon class="st6" points="268.4,347.1 273.2,339.7 274.3,345.8 269.6,353.5 	"/>
	<g>
		<polygon class="st7" points="325.6,428.6 322.8,422.1 314.2,419.8 316.8,426 		"/>
		<polygon class="st8" points="309.8,409.3 313,400.8 315.4,406.6 312.4,415.5 		"/>
		<polygon class="st7" points="320.7,417.2 317.9,410.7 309.8,409.3 312.4,415.5 		"/>
		<polygon class="st8" points="314.2,419.8 317.9,410.7 320.7,417.2 316.8,426 		"/>
	</g>
	<g>
		<polygon class="st7" points="156.8,362.2 161.8,355.7 172.2,355.8 167.4,362 		"/>
		<polygon class="st8" points="180.4,345.3 179.4,334.8 174.9,340.6 175.6,351.5 		"/>
		<polygon class="st7" points="165.8,350.9 170.8,344.4 180.4,345.3 175.6,351.5 		"/>
		<polygon class="st8" points="172.2,355.8 170.8,344.4 165.8,350.9 167.4,362 		"/>
	</g>
	<g>
		<path class="st8" d="M366.3,336.6l-16.2,3.5l-8.7-13.5l6.3-2.8c3.9,0.9,6.5,1.6,10.4,2.6L366.3,336.6z"/>
		<polygon class="st9" points="358.1,326.4 351.1,329 347.7,323.9 		"/>
	</g>
	<polygon class="st10" points="220.3,334.9 211.3,333.7 204.2,339.7 210.3,340.1 216.4,337.6 	"/>
	<polygon class="st11" points="216.4,337.6 214.8,341.8 210.3,340.1 	"/>
	<polygon class="st9" points="72.5,390.1 59.2,393.7 52.6,406.3 61.5,403.3 68.7,396.2 	"/>
	<polygon class="st10" points="68.7,396.2 68.8,403.1 61.5,403.3 	"/>
	<polygon class="st10" points="137.3,316.5 128.3,317.4 122.7,324.9 128.8,323.9 134.2,320 	"/>
	<polygon class="st11" points="134.2,320 133.6,324.5 128.8,323.9 	"/>
	<circle class="st8" cx="182" cy="448.4" r="3"/>
	
		<rect x="30.6" y="326.6" transform="matrix(-0.9526 -0.3043 0.3043 -0.9526 -33.1014 655.2556)" class="st12" width="7.8" height="7.3"/>
	
		<rect x="81.9" y="307.6" transform="matrix(-1 -1.224647e-16 1.224647e-16 -1 169.3527 620.6565)" class="st1" width="5.5" height="5.5"/>
	<circle class="st1" cx="229.1" cy="394.7" r="2.3"/>
	<path class="st10" d="M289.9,467.4c0-1.9,1.5-3.4,3.4-3.4c1.9,0,3.4,1.5,3.4,3.4c0,1.9-1.5,3.4-3.4,3.4
		C291.4,470.8,289.9,469.3,289.9,467.4z"/>
	<path class="st9" d="M307.5,439c0-1.5,1.2-2.7,2.7-2.7c1.5,0,2.7,1.2,2.7,2.7c0,1.5-1.2,2.7-2.7,2.7
		C308.7,441.6,307.5,440.4,307.5,439z"/>
	<circle class="st9" cx="330.5" cy="367.1" r="2.2"/>
	<path class="st10" d="M371.1,389.5c0-1,0.8-1.9,1.9-1.9c1,0,1.9,0.8,1.9,1.9c0,1-0.8,1.9-1.9,1.9
		C371.9,391.3,371.1,390.5,371.1,389.5z"/>
	<path class="st14" d="M454.6,322.4c0-1.7,1.3-3,3-3c1.7,0,3,1.3,3,3c0,1.7-1.3,3-3,3C455.9,325.4,454.6,324.1,454.6,322.4z"/>
	<circle class="st8" cx="404.1" cy="334.7" r="1.8"/>
	
		<rect x="337.4" y="295.3" transform="matrix(-1 -1.224647e-16 1.224647e-16 -1 679.2243 594.1585)" class="st8" width="4.5" height="3.5"/>
	<path class="st20" d="M143.6,382.3c-2.5-1.6-7.3,2.3-5.1,6c2.2,3.6-0.9,6.6-4.6,5.2c-3.7-1.5-6.7,2.1-4.4,5.8"/>
	<path class="st16" d="M366,440.9c-2.7-0.3-3.7-2.9-2.7-4.9c1-2-0.5-4-2.9-4.5c-2.4-0.5-3.5-2.4-2.6-4.5"/>
	<path class="st17" d="M108.6,332.9c0.4,3.9-3.5,5.3-6.2,3.6c-2.7-1.7-5.7,0.1-5.2,3.5c0.4,3.4-3.6,4.8-6.2,3.5
		c-3.4-1.7-7.1-0.4-6.7,3.8"/>
	
		<rect x="412.4" y="359.2" transform="matrix(-0.9863 0.1648 -0.1648 -0.9863 883.4381 649.8954)" class="st17" width="4.7" height="4.7"/>
	
		<rect x="385.8" y="307.9" transform="matrix(-0.9259 0.3779 -0.3779 -0.9259 865.6375 451.4897)" class="st17" width="5.5" height="5.5"/>
	<path class="st21" d="M463.9,354.2c-3.7,2.8-8.1,0.1-8.5-3.2c-0.4-3.3-4.3-4.5-7.1-2.6c-2.8,1.9-7.2-0.3-7.7-3.5
		c-0.4-3.1-4.1-3.6-5.7-2.6"/>
	
		<rect x="203.7" y="436.6" transform="matrix(-0.4828 -0.8757 0.8757 -0.4828 -78.8286 831.4011)" class="st17" width="4.7" height="4.7"/>
	
		<rect x="247.6" y="383.4" transform="matrix(-0.6637 -0.748 0.748 -0.6637 128.5763 832.0709)" class="st17" width="7.5" height="7.5"/>
	<path class="st22" d="M228.4,482.9c-4.9-3.2-3.5-9.7,0.3-11.7c3.8-1.9,3.6-7.1,0.2-9.7c-3.5-2.6-2.7-8.9,1-10.7
		c3.6-1.9,2.6-6.5,0.7-8"/>
	
		<rect x="92.5" y="362.4" transform="matrix(0.1827 -0.9832 0.9832 0.1827 -281.4212 395.2527)" class="st17" width="9" height="9"/>
	
		<rect x="176.4" y="298.7" transform="matrix(0.119 -0.9929 0.9929 0.119 -141.4788 443.4777)" class="st17" width="5.5" height="5.5"/>
	<path class="st17" d="M87.1,413.3c-1.4-4.4,2.7-7.6,6-6.9c3.3,0.7,5.7-2.5,4.9-5.7c-0.8-3.3,2.8-6.7,5.9-6c3.1,0.7,4.8-2.6,4.4-4.5
		"/>
	<g>
		<path class="st23" d="M34.6,233.3H15.5v-11.3h52v11.3H48.5v48.5H34.6V233.3z"/>
		<path class="st23" d="M115.7,240.3c3.5,3.4,5.2,8.5,5.2,15.2v26.3h-13.3v-24.2c0-3.6-0.8-6.4-2.4-8.1c-1.6-1.8-3.9-2.7-6.9-2.7
			c-3.4,0-6,1-8,3.1c-2,2.1-3,5.2-3,9.3v22.7H74v-63.3h13.3v22.2c1.8-1.8,3.9-3.1,6.4-4.1c2.5-0.9,5.2-1.4,8.2-1.4
			C107.6,235.2,112.2,236.9,115.7,240.3z"/>
		<path class="st23" d="M167.9,240.3c3.8,3.4,5.7,8.5,5.7,15.3v26.2h-12.5V276c-2.5,4.3-7.2,6.4-14,6.4c-3.5,0-6.6-0.6-9.2-1.8
			c-2.6-1.2-4.6-2.8-5.9-4.9c-1.4-2.1-2-4.5-2-7.2c0-4.3,1.6-7.6,4.8-10.1c3.2-2.4,8.2-3.7,14.9-3.7h10.6c0-2.9-0.9-5.1-2.6-6.7
			c-1.8-1.6-4.4-2.3-7.9-2.3c-2.4,0-4.8,0.4-7.2,1.2c-2.4,0.8-4.4,1.8-6,3.1l-4.8-9.3c2.5-1.8,5.5-3.1,9-4.1c3.5-1,7.1-1.5,10.8-1.5
			C158.6,235.2,164.1,236.9,167.9,240.3z M156.5,271.9c1.8-1.1,3-2.6,3.8-4.6v-4.7h-9.1c-5.5,0-8.2,1.8-8.2,5.4c0,1.7,0.7,3.1,2,4.1
			c1.3,1,3.2,1.5,5.5,1.5C152.8,273.5,154.8,273,156.5,271.9z"/>
		<path class="st23" d="M227.3,240.3c3.5,3.4,5.2,8.5,5.2,15.2v26.3h-13.3v-24.2c0-3.6-0.8-6.4-2.4-8.1c-1.6-1.8-3.9-2.7-6.9-2.7
			c-3.4,0-6,1-8,3.1c-2,2.1-3,5.2-3,9.3v22.7h-13.3v-45.9h12.7v5.4c1.8-1.9,4-3.4,6.6-4.5c2.6-1.1,5.5-1.6,8.6-1.6
			C219.2,235.2,223.8,236.9,227.3,240.3z"/>
		<path class="st23" d="M264.3,263.8l-6.4,6.3v11.7h-13.3v-63.3h13.3v35.8l19.4-18.4h15.9l-19.1,19.4l20.8,26.4h-16.1L264.3,263.8z"
			/>
	</g>
	<g>
		<path class="st23" d="M344.7,260.6v21.2h-13.8v-21.3l-23.1-38.4h14.7l16,26.5l16-26.5h13.6L344.7,260.6z"/>
		<path class="st23" d="M376.5,279.4c-3.8-2-6.8-4.8-9-8.4s-3.2-7.6-3.2-12.2c0-4.5,1.1-8.6,3.2-12.2s5.2-6.4,9-8.4
			c3.8-2,8.2-3,13-3c4.8,0,9.2,1,13,3c3.8,2,6.8,4.8,9,8.4c2.2,3.6,3.2,7.6,3.2,12.2c0,4.6-1.1,8.6-3.2,12.2c-2.2,3.6-5.1,6.4-9,8.4
			c-3.8,2-8.1,3-13,3C384.7,282.4,380.3,281.4,376.5,279.4z M397.9,268.1c2.2-2.3,3.3-5.4,3.3-9.3c0-3.9-1.1-7-3.3-9.3
			c-2.2-2.3-5-3.5-8.4-3.5s-6.2,1.2-8.4,3.5c-2.2,2.3-3.3,5.4-3.3,9.3c0,3.9,1.1,7,3.3,9.3c2.2,2.3,5,3.5,8.4,3.5
			S395.7,270.4,397.9,268.1z"/>
		<path class="st23" d="M469.8,235.9v45.9h-12.6v-5.5c-1.8,2-3.9,3.5-6.3,4.6c-2.4,1.1-5.1,1.6-7.9,1.6c-6,0-10.8-1.7-14.3-5.2
			c-3.5-3.5-5.3-8.6-5.3-15.4v-25.9h13.3v24c0,7.4,3.1,11.1,9.3,11.1c3.2,0,5.7-1,7.7-3.1c1.9-2.1,2.9-5.2,2.9-9.3v-22.7H469.8z"/>
	</g>
	<path class="st24" d="M359.7,40.9h-2v-2c0-0.8-0.7-1.5-1.5-1.5c-0.8,0-1.5,0.7-1.5,1.5v2h-2c-0.8,0-1.5,0.7-1.5,1.5
		s0.7,1.5,1.5,1.5h2v2c0,0.8,0.7,1.5,1.5,1.5c0.8,0,1.5-0.7,1.5-1.5v-2h2c0.8,0,1.5-0.7,1.5-1.5S360.5,40.9,359.7,40.9z"/>
	<path class="st24" d="M136.9,441.1h-2v-2c0-0.8-0.7-1.5-1.5-1.5c-0.8,0-1.5,0.7-1.5,1.5v2h-2c-0.8,0-1.5,0.7-1.5,1.5
		c0,0.8,0.7,1.5,1.5,1.5h2v2c0,0.8,0.7,1.5,1.5,1.5c0.8,0,1.5-0.7,1.5-1.5v-2h2c0.8,0,1.5-0.7,1.5-1.5
		C138.4,441.8,137.7,441.1,136.9,441.1z"/>
	<path class="st25" d="M267.6,309.6h-2v-2c0-0.8-0.7-1.5-1.5-1.5c-0.8,0-1.5,0.7-1.5,1.5v2h-2c-0.8,0-1.5,0.7-1.5,1.5
		c0,0.8,0.7,1.5,1.5,1.5h2v2c0,0.8,0.7,1.5,1.5,1.5c0.8,0,1.5-0.7,1.5-1.5v-2h2c0.8,0,1.5-0.7,1.5-1.5
		C269.1,310.3,268.5,309.6,267.6,309.6z"/>
	<path class="st26" d="M196.1,181.3h-2v-2c0-0.8-0.7-1.5-1.5-1.5c-0.8,0-1.5,0.7-1.5,1.5v2h-2c-0.8,0-1.5,0.7-1.5,1.5
		c0,0.8,0.7,1.5,1.5,1.5h2v2c0,0.8,0.7,1.5,1.5,1.5c0.8,0,1.5-0.7,1.5-1.5v-2h2c0.8,0,1.5-0.7,1.5-1.5
		C197.6,182,196.9,181.3,196.1,181.3z"/>
	<g>
		<path class="st10" d="M265.4,137c0,1.9-1.6,3.5-3.5,3.5c-1.9,0-3.5-1.6-3.5-3.5c0-1.9,1.6-3.5,3.5-3.5
			C263.9,133.5,265.4,135,265.4,137z"/>
		<path class="st9" d="M188.7,155.4c0,1.9-1.5,3.4-3.4,3.4c-1.9,0-3.4-1.5-3.4-3.4s1.5-3.4,3.4-3.4
			C187.2,152,188.7,153.5,188.7,155.4z"/>
		<path class="st10" d="M210.6,374.1c0,1.7-1.3,3-3,3c-1.7,0-3-1.3-3-3s1.3-3,3-3C209.2,371.1,210.6,372.5,210.6,374.1z"/>
		<path class="st10" d="M299.6,388.9c0,1.3-1,2.3-2.3,2.3c-1.3,0-2.3-1-2.3-2.3c0-1.3,1-2.3,2.3-2.3
			C298.5,386.5,299.6,387.6,299.6,388.9z"/>
		<path class="st10" d="M484.8,303.9c0,1.6-1.3,3-3,3c-1.6,0-3-1.3-3-3c0-1.6,1.3-3,3-3C483.5,301,484.8,302.3,484.8,303.9z"/>
		<path class="st10" d="M428.5,307.9c0,1.2-1,2.2-2.2,2.2c-1.2,0-2.2-1-2.2-2.2c0-1.2,1-2.2,2.2-2.2
			C427.5,305.7,428.5,306.7,428.5,307.9z"/>
		<path class="st10" d="M59.6,103.9c0,1.4-1.2,2.6-2.6,2.6c-1.4,0-2.6-1.2-2.6-2.6c0-1.4,1.2-2.6,2.6-2.6
			C58.4,101.3,59.6,102.5,59.6,103.9z"/>
		<path class="st10" d="M69.1,187c0,0.9-0.7,1.7-1.7,1.7s-1.7-0.7-1.7-1.7c0-0.9,0.7-1.7,1.7-1.7S69.1,186.1,69.1,187z"/>
		<path class="st9" d="M236.8,22.5c0,1.9-1.5,3.4-3.4,3.4s-3.4-1.5-3.4-3.4c0-1.9,1.5-3.4,3.4-3.4S236.8,20.6,236.8,22.5z"/>
		<path class="st10" d="M157.4,33.2c0,0.9-0.7,1.7-1.7,1.7c-0.9,0-1.7-0.7-1.7-1.7c0-0.9,0.7-1.7,1.7-1.7
			C156.7,31.5,157.4,32.3,157.4,33.2z"/>
		<circle class="st1" cx="211.8" cy="104.6" r="3.1"/>
		<path class="st1" d="M380.1,70.4c0,1.7-1.4,3.1-3.1,3.1c-1.7,0-3.1-1.4-3.1-3.1c0-1.7,1.4-3.1,3.1-3.1
			C378.7,67.3,380.1,68.7,380.1,70.4z"/>
		<path class="st10" d="M423.5,112.2c0,2.6-2.1,4.7-4.7,4.7s-4.7-2.1-4.7-4.7c0-2.6,2.1-4.7,4.7-4.7S423.5,109.6,423.5,112.2z"/>
		<circle class="st10" cx="305.6" cy="323.3" r="5.7"/>
		<circle class="st9" cx="52.6" cy="366.6" r="3.1"/>
		<circle class="st10" cx="22.1" cy="300.5" r="4.4"/>
		<path class="st10" d="M60.4,305.4c0,1.9-1.5,3.4-3.4,3.4c-1.9,0-3.4-1.5-3.4-3.4c0-1.9,1.5-3.4,3.4-3.4
			C58.9,302,60.4,303.5,60.4,305.4z"/>
		<circle class="st1" cx="130.5" cy="352.2" r="3.5"/>
		<path class="st10" d="M227.3,307.1c0,2.2-1.8,4-4,4c-2.2,0-4-1.8-4-4c0-2.2,1.8-4,4-4C225.5,303.1,227.3,304.9,227.3,307.1z"/>
		<path class="st10" d="M280.3,402.5c0,1.6-1.3,2.8-2.8,2.8c-1.6,0-2.8-1.3-2.8-2.8c0-1.6,1.3-2.8,2.8-2.8
			C279.1,399.6,280.3,400.9,280.3,402.5z"/>
		<path class="st9" d="M216.7,418.2c0,2.1-1.7,3.8-3.8,3.8c-2.1,0-3.8-1.7-3.8-3.8c0-2.1,1.7-3.8,3.8-3.8
			C215,414.4,216.7,416.1,216.7,418.2z"/>
		<path class="st10" d="M348.9,400.1c0,1.6-1.3,2.8-2.8,2.8c-1.6,0-2.8-1.3-2.8-2.8c0-1.6,1.3-2.8,2.8-2.8
			C347.7,397.3,348.9,398.6,348.9,400.1z"/>
		<path class="st10" d="M380.4,352c0,1.8-1.5,3.3-3.3,3.3c-1.8,0-3.3-1.5-3.3-3.3s1.5-3.3,3.3-3.3
			C378.9,348.7,380.4,350.1,380.4,352z"/>
		<circle class="st1" cx="432.1" cy="386.5" r="3.8"/>
	</g>
	<g>
		<path class="st27" d="M34.6,229.6H15.5v-11.3h52v11.3H48.5V278H34.6V229.6z"/>
		<path class="st27" d="M115.7,236.6c3.5,3.4,5.2,8.5,5.2,15.2V278h-13.3v-24.2c0-3.6-0.8-6.4-2.4-8.1c-1.6-1.8-3.9-2.7-6.9-2.7
			c-3.4,0-6,1-8,3.1c-2,2.1-3,5.2-3,9.3V278H74v-63.3h13.3v22.2c1.8-1.8,3.9-3.1,6.4-4.1c2.5-0.9,5.2-1.4,8.2-1.4
			C107.6,231.5,112.2,233.2,115.7,236.6z"/>
		<path class="st27" d="M167.9,236.5c3.8,3.4,5.7,8.5,5.7,15.3V278h-12.5v-5.7c-2.5,4.3-7.2,6.4-14,6.4c-3.5,0-6.6-0.6-9.2-1.8
			c-2.6-1.2-4.6-2.8-5.9-4.9c-1.4-2.1-2-4.5-2-7.2c0-4.3,1.6-7.6,4.8-10.1c3.2-2.4,8.2-3.7,14.9-3.7h10.6c0-2.9-0.9-5.1-2.6-6.7
			c-1.8-1.6-4.4-2.3-7.9-2.3c-2.4,0-4.8,0.4-7.2,1.2c-2.4,0.8-4.4,1.8-6,3.1l-4.8-9.3c2.5-1.8,5.5-3.1,9-4.1c3.5-1,7.1-1.5,10.8-1.5
			C158.6,231.5,164.1,233.1,167.9,236.5z M156.5,268.2c1.8-1.1,3-2.6,3.8-4.6v-4.7h-9.1c-5.5,0-8.2,1.8-8.2,5.4c0,1.7,0.7,3.1,2,4.1
			c1.3,1,3.2,1.5,5.5,1.5C152.8,269.8,154.8,269.2,156.5,268.2z"/>
		<path class="st27" d="M227.3,236.6c3.5,3.4,5.2,8.5,5.2,15.2V278h-13.3v-24.2c0-3.6-0.8-6.4-2.4-8.1c-1.6-1.8-3.9-2.7-6.9-2.7
			c-3.4,0-6,1-8,3.1c-2,2.1-3,5.2-3,9.3V278h-13.3v-45.9h12.7v5.4c1.8-1.9,4-3.4,6.6-4.5c2.6-1.1,5.5-1.6,8.6-1.6
			C219.2,231.5,223.8,233.2,227.3,236.6z"/>
		<path class="st27" d="M264.3,260l-6.4,6.3V278h-13.3v-63.3h13.3v35.8l19.4-18.4h15.9l-19.1,19.4l20.8,26.4h-16.1L264.3,260z"/>
	</g>
	<g>
		<path class="st28" d="M344.7,256.9V278h-13.8v-21.3l-23.1-38.4h14.7l16,26.5l16-26.5h13.6L344.7,256.9z"/>
		<path class="st28" d="M376.5,275.7c-3.8-2-6.8-4.8-9-8.4s-3.2-7.6-3.2-12.2c0-4.5,1.1-8.6,3.2-12.2s5.2-6.4,9-8.4
			c3.8-2,8.2-3,13-3c4.8,0,9.2,1,13,3c3.8,2,6.8,4.8,9,8.4c2.2,3.6,3.2,7.6,3.2,12.2c0,4.6-1.1,8.6-3.2,12.2c-2.2,3.6-5.1,6.4-9,8.4
			c-3.8,2-8.1,3-13,3C384.7,278.7,380.3,277.7,376.5,275.7z M397.9,264.3c2.2-2.3,3.3-5.4,3.3-9.3c0-3.9-1.1-7-3.3-9.3
			c-2.2-2.3-5-3.5-8.4-3.5s-6.2,1.2-8.4,3.5c-2.2,2.3-3.3,5.4-3.3,9.3c0,3.9,1.1,7,3.3,9.3c2.2,2.3,5,3.5,8.4,3.5
			S395.7,266.6,397.9,264.3z"/>
		<path class="st28" d="M469.8,232.1V278h-12.6v-5.5c-1.8,2-3.9,3.5-6.3,4.6c-2.4,1.1-5.1,1.6-7.9,1.6c-6,0-10.8-1.7-14.3-5.2
			c-3.5-3.5-5.3-8.6-5.3-15.4v-25.9h13.3v24c0,7.4,3.1,11.1,9.3,11.1c3.2,0,5.7-1,7.7-3.1c1.9-2.1,2.9-5.2,2.9-9.3v-22.7H469.8z"/>
	</g>
</g>
<g id="Designed_by_Freepik">
</g>
</svg>
